<svg xmlns="http://www.w3.org/2000/svg" width="166" height="75" viewBox="0 0 166 75" fill="none"><path d="M166 62.1721H75.2327L70.7635 69.8524V73.8329H166V62.1721Z" fill="#177042"></path><path d="M4.51433 47.084H7.62627L12.0483 58.7901H9.15747L8.44346 56.7366H3.66412L2.93301 58.7901H0.109985L4.51433 47.084ZM7.57556 54.312L6.04495 49.9857L4.51433 54.312H7.57556Z" fill="#272C68"></path><path d="M13.1379 47.084H16.4032L19.702 53.1232L23.0185 47.084H26.2496V58.7901H23.614V50.985L20.4337 56.8219H18.9373L15.7741 50.985V58.7901H13.1379V47.084Z" fill="#272C68"></path><path d="M28.4795 47.0838H36.2682V49.5608H31.1156V51.6637H35.7069V54.1407H31.1156V56.3123H36.3537V58.7893H28.4795V47.0833V47.0838Z" fill="#272C68"></path><path d="M38.0552 47.084H43.3439C45.674 47.084 47.4258 48.7633 47.4258 51.0027C47.4258 52.6485 46.4559 53.9555 44.9936 54.5149L47.7831 58.7906H44.5178L42.0515 54.7867H40.6913V58.7906H38.0552V47.0846V47.084ZM40.6913 49.5615V52.4967H43.2932C44.1098 52.4967 44.7218 51.8685 44.7218 51.038C44.7218 50.2074 44.1098 49.5621 43.2932 49.5621H40.6913V49.5615Z" fill="#272C68"></path><path d="M49.0927 47.084H51.7288V58.7901H49.0927V47.084Z" fill="#272C68"></path><path d="M53.3961 52.9372C53.3961 49.4926 56.0664 46.8804 59.6035 46.8804C62.6305 46.8804 65.0455 48.8144 65.5726 51.5461H62.7667C62.3245 50.2732 61.0999 49.4085 59.6035 49.4085C57.6136 49.4085 56.1006 50.9185 56.1006 52.9378C56.1006 54.9572 57.6142 56.4671 59.6035 56.4671C61.0999 56.4671 62.3245 55.6012 62.7667 54.3295H65.5726C65.0455 57.0606 62.6305 58.9953 59.6035 58.9953C56.0664 58.9953 53.3961 56.3818 53.3961 52.9384V52.9372Z" fill="#272C68"></path><path d="M69.8084 47.084H72.9204L77.3424 58.7901H74.4516L73.7375 56.7366H68.9588L68.2277 58.7901H65.4047L69.809 47.084H69.8084ZM72.8696 54.312L71.339 49.9857L69.8084 54.312H72.8696Z" fill="#272C68"></path><path d="M78.4319 47.084H81.0851L85.9659 54.2431V47.084H88.6014V58.7901H85.9317L81.068 51.6303V58.7901H78.4319V47.084Z" fill="#272C68"></path><path d="M94.5723 47.084H97.2084V51.6644H101.919V47.084H104.555V58.7901H101.919V54.1414H97.2084V58.7901H94.5723V47.084Z" fill="#272C68"></path><path d="M106.597 54.2431V47.084H109.233V54.209C109.233 55.499 110.185 56.466 111.495 56.466C112.804 56.466 113.757 55.4984 113.757 54.209V47.084H116.392V54.2431C116.392 56.9583 114.266 58.9942 111.495 58.9942C108.723 58.9942 106.597 56.9578 106.597 54.2431Z" fill="#272C68"></path><path d="M118.418 47.084H121.683L124.982 53.1232L128.298 47.084H131.529V58.7901H128.894V50.985L125.713 56.8219H124.217L121.054 50.985V58.7901H118.418V47.084Z" fill="#272C68"></path><path d="M137.007 47.084H140.119L144.541 58.7901H141.651L140.937 56.7366H136.158L135.427 58.7901H132.604L137.008 47.084H137.007ZM140.068 54.312L138.537 49.9857L137.007 54.312H140.068Z" fill="#272C68"></path><path d="M145.631 47.084H148.284L153.165 54.2431V47.084H155.8V58.7901H153.131L148.267 51.6303V58.7901H145.631V47.084Z" fill="#272C68"></path><path d="M158.029 47.0838H165.818V49.5608H160.665V51.6637H165.256V54.1407H160.665V56.3123H165.903V58.7893H158.029V47.0833V47.0838Z" fill="#272C68"></path><path d="M0.671265 70.3612H3.37519C3.37519 71.1247 4.17411 71.7359 5.17761 71.7359C6.07912 71.7359 6.82733 71.2612 6.82733 70.5994C6.82733 68.7672 0.858169 69.5642 0.858169 65.5943C0.858169 63.3891 2.71189 61.9639 5.07561 61.9639C7.43934 61.9639 9.36145 63.4909 9.36145 65.5267H6.65752C6.65752 64.8308 5.96002 64.3055 5.0591 64.3055C4.24309 64.3055 3.56269 64.7126 3.56269 65.3743C3.56269 67.2237 9.53185 66.2225 9.53185 70.2942C9.53185 72.5841 7.60973 74.0782 5.1446 74.0782C2.67946 74.0782 0.671854 72.4488 0.671854 70.3618L0.671265 70.3612Z" fill="#272C68"></path><path d="M10.6038 68.0202C10.6038 64.5756 13.2741 61.9634 16.8111 61.9634C20.3482 61.9634 23.0185 64.5762 23.0185 68.0202C23.0185 71.4642 20.3487 74.0771 16.8111 74.0771C13.2735 74.0771 10.6038 71.4636 10.6038 68.0202ZM20.3146 68.0202C20.3146 66.0009 18.8004 64.4909 16.8111 64.4909C14.8218 64.4909 13.3083 66.0009 13.3083 68.0202C13.3083 70.0396 14.8218 71.5495 16.8111 71.5495C18.8004 71.5495 20.3146 70.039 20.3146 68.0202Z" fill="#272C68"></path><path d="M24.1082 68.0202C24.1082 64.5756 26.7785 61.9634 30.3155 61.9634C33.3425 61.9634 35.7576 63.8974 36.2847 66.6291H33.4787C33.0365 65.3562 31.8119 64.4915 30.3155 64.4915C28.3256 64.4915 26.8127 66.0015 26.8127 68.0208C26.8127 70.0402 28.3262 71.5501 30.3155 71.5501C31.8119 71.5501 33.0365 70.6843 33.4787 69.4125H36.2847C35.7576 72.1436 33.3425 74.0783 30.3155 74.0783C26.7785 74.0783 24.1082 71.4648 24.1082 68.0214V68.0202Z" fill="#272C68"></path><path d="M37.8677 62.1675H40.5038V73.8735H37.8677V62.1675Z" fill="#272C68"></path><path d="M42.7485 62.1676H50.5372V64.6446H45.3847V66.7474H49.9759V69.2244H45.3847V71.3961H50.6227V73.8731H42.7485V62.167V62.1676Z" fill="#272C68"></path><path d="M54.7728 64.6445H51.6945V62.1675H60.4866V64.6445H57.4083V73.8735H54.7722V64.6445H54.7728Z" fill="#272C68"></path><path d="M65.5213 69.8526L61.0657 62.167H64.0756L66.8821 67.1374L69.671 62.167H72.6302L68.158 69.8526V73.8736H65.5219V69.8526H65.5213Z" fill="#272C68"></path><path d="M94.1749 37.3811C93.9332 37.0676 93.4733 36.3429 93.425 36.15C93.3766 35.9565 93.6484 34.2489 93.6667 31.8049C93.6691 31.4978 93.685 30.1026 93.7876 29.005C93.8619 28.2085 94.0299 27.5809 94.0299 27.5809C95.5782 26.9297 95.7716 26.0662 95.7716 26.0662C96.5216 26.4286 98.1672 26.8574 99.4737 26.9539C100.78 27.0503 102.183 27.5574 103.925 27.6056C105.667 27.6532 107.53 27.3397 107.511 27.5091C107.492 27.678 107.409 29.3438 107.288 29.9473C107.167 30.5508 106.853 31.4678 106.32 32.4572C105.788 33.4466 105.546 34.1948 105.377 34.7501C105.207 35.3053 104.796 35.933 103.853 36.1982C102.909 36.4635 102.812 37.0188 102.715 37.1876C102.628 37.3411 104.003 38.1988 105.002 38.6082H108.509C108.558 38.2717 108.565 37.8352 108.619 37.55C108.716 37.0429 108.716 36.8976 109.078 36.5365C109.442 36.1741 109.417 35.9088 109.611 34.8465C109.804 33.7848 110.337 32.3125 110.433 31.7325C110.53 31.1537 111.026 30.1755 111.34 29.8138C111.655 29.452 112.707 28.3291 112.707 28.3291C112.95 28.4738 114.571 29.1979 115.296 29.3426C115.611 29.4055 115.979 29.7485 116.294 30.172C116.3 30.5337 116.153 30.8173 116.023 31.1919C115.842 31.7166 116.095 32.3296 116.095 32.3296C116.095 32.3296 116.331 31.9496 116.548 31.6772C116.664 31.5331 116.759 31.2825 116.819 31.0655C116.946 31.3514 117.021 31.6155 117.014 31.8043C116.99 32.4807 118.393 35.4736 118.587 35.8835C118.78 36.2941 118.587 36.897 118.393 37.1388C118.2 37.38 117.788 37.5735 117.667 37.8147C117.562 38.0252 117.548 38.4899 117.546 38.6076H122.743C122.925 38.5105 123.119 38.2358 123.231 37.7664C123.353 37.2594 122.433 36.1735 122.24 35.9559C122.046 35.7388 122.046 34.7012 121.974 34.4595C121.901 34.2183 121.199 33.2772 120.473 32.0702C119.748 30.8631 119.82 28.6909 119.602 27.4838C119.385 26.2774 118.949 25.1186 118.949 25.1186C118.949 25.1186 119.108 24.5398 119.409 23.6704C120.395 20.82 119.312 17.7565 118.441 15.4878C117.57 13.219 115.465 11.1668 111.545 9.04271C107.626 6.91866 103.343 7.93216 102.303 8.02863C101.262 8.12509 98.9879 7.78746 96.8588 7.47394C96.6012 7.43571 96.3412 7.39688 96.0823 7.35865C95.9278 6.8922 95.7097 6.57809 95.6201 6.19104C95.475 5.56342 94.7009 5.65988 93.7333 5.17696C92.7658 4.69462 92.5718 4.11523 91.3142 3.68113C90.2576 3.31644 88.8608 4.61816 88.4399 5.0452C88.1681 4.97756 87.8709 4.93579 87.5431 4.93579C86.1834 4.93579 85.2295 5.72106 85.2295 5.72106C84.6334 5.72106 83.2024 6.62515 82.8209 6.91102C82.4395 7.19689 81.1205 7.94686 80.3411 8.12451C79.2214 8.37979 77.2409 10.0515 76.8353 10.3133C76.4302 10.575 73.902 12.5967 72.3761 11.3367C70.8496 10.075 70.7783 8.9333 71.3508 7.22042C71.9233 5.50754 74.8801 4.57933 76.1678 3.96112C77.4555 3.34232 77.7892 2.79528 77.9803 1.84355C78.1707 0.892402 77.837 0.440065 77.5275 0.107135C77.2173 -0.225794 76.9791 0.297717 76.6212 0.583001C76.2633 0.868874 75.9532 0.975341 75.9532 0.975341C75.9414 1.22533 76.3011 0.991811 76.6926 1.39944C77.0499 1.77237 76.7079 2.12177 75.4762 2.56881C73.0199 3.46114 68.4652 4.98403 68.2984 8.67096C68.1533 11.8679 69.9799 13.9196 71.8673 15.0449C69.9375 15.1331 68.4446 14.9696 66.0137 14.4208C65.2413 14.2455 64.8403 14.1808 64.8156 14.3284C64.7743 14.579 69.408 17.0366 74.1932 16.3489C74.4957 16.3054 74.7846 16.2566 75.0629 16.2036C75.5311 16.2878 75.9909 16.3389 76.4196 16.3607C73.8884 17.5636 73.0919 17.8895 69.6391 17.3024C68.8585 17.1695 68.2141 17.0054 68.2182 17.1554C68.2341 17.7712 72.5712 19.747 76.9373 17.6765C77.9249 17.2083 78.7745 16.6983 79.5032 16.1848C79.2792 17.0242 78.9773 18.1083 78.8635 18.3077C78.6725 18.6406 77.4325 20.9482 78.0528 21.4005C78.6731 21.8523 78.6966 20.4253 79.6029 20.187C80.5091 19.9488 80.7715 19.4494 81.0097 19.3782C81.2479 19.3071 82.5356 20.2111 83.9907 19.7353C85.0172 19.3994 85.6263 19.1 85.8975 18.9524C86.0378 19.0435 86.4069 19.5482 86.8202 20.0753C87.2559 20.63 87.7394 20.8717 88.0301 20.9682C88.3202 21.0646 88.2476 21.2335 88.3202 21.6687C88.3927 22.1028 88.7075 22.4646 88.7075 22.4646C88.7075 22.4646 88.7801 23.3099 88.6592 23.8887C88.5383 24.4681 87.9086 26.2304 87.3285 27.5338C86.8845 28.5309 85.8769 31.009 85.8769 31.6366C85.8769 32.2643 86.3126 34.1713 87.1675 34.6895C88.3202 35.3883 88.9841 36.5124 89.1185 36.9229C89.3172 37.5288 88.7547 38.1111 88.7995 38.6087H94.4621C94.4768 38.2988 94.3689 37.6323 94.1755 37.3817H94.1749V37.3811ZM118.799 21.9752C118.799 23.3152 118.646 24.0387 118.646 24.0387C118.646 24.0387 118.504 23.8034 118.559 23.0787C118.613 22.3552 118.659 20.8523 118.521 20.237C118.521 20.237 118.799 20.6353 118.799 21.9746V21.9752ZM89.8932 33.1572C89.8932 33.1572 89.4817 32.7466 89.3608 32.3125C89.24 31.8778 89.8201 31.3225 89.8932 31.4672C89.9658 31.6125 89.8932 33.1572 89.8932 33.1572Z" fill="#272C68"></path><path d="M143.558 37.2848C143.482 36.8554 143.519 35.7219 143.606 35.1749C143.693 34.6273 143.755 35.1937 145.223 35.836C145.717 36.0519 147.085 36.7425 148.525 36.8954C148.952 36.9407 147.235 38.066 146.777 38.5554C146.76 38.5736 146.746 38.5907 146.729 38.6089H148.816C148.93 38.5401 149.042 38.4707 149.144 38.3989C149.697 38.0101 150.131 37.3413 150.37 36.8401C150.608 36.339 150.524 36.0202 149.927 35.8543C149.331 35.689 148.7 35.2919 148.038 35.0096C147.278 34.6855 146.48 34.0349 146.327 33.5238C146.173 33.0126 146.662 32.4085 147.157 31.6091C147.651 30.8092 148.306 29.8815 148.853 29.0716C149.4 28.2616 149.385 27.9616 149.157 27.6263C148.969 27.3487 148.099 26.8428 148.923 26.704C149.747 26.5652 152.62 25.5123 153.239 25.2064C155.176 24.2494 155.993 22.9606 156.224 22.6289C157.166 21.273 157.529 18.9543 157.744 18.2978C158.226 16.8267 158.412 16.015 157.113 14.3315C155.814 12.648 152.834 12.6786 152.297 12.5786C151.76 12.4786 151.274 12.0192 150.913 12.4333C150.552 12.8474 151.021 13.1674 151.581 13.2739C152.79 13.5039 154.898 13.3792 156.053 14.435C157.207 15.4903 157.238 16.5467 156.924 17.5867C156.61 18.6266 156.338 19.4266 156.067 20.3072C155.797 21.1877 155.28 22.0736 154.082 23.113C152.883 24.1523 151.857 24.3329 150.624 24.7017C149.976 24.8952 147.995 24.9276 147.393 24.8829C146.792 24.8388 146.792 24.3976 144.987 23.8235C143.182 23.2494 140.519 23.4659 139.46 23.5641C138.401 23.6623 136.385 23.9359 135.863 24.1341C135.341 24.3323 134.563 24.307 133.62 24.0753C133.099 23.947 132.834 23.8406 132.475 23.66C132.116 23.4788 131.768 23.14 130.79 23.1271C129.926 23.1159 128.667 22.8153 128.288 22.8247C127.909 22.8341 128.02 22.963 128.391 23.0988C128.584 23.1694 128.996 23.3971 129.078 23.6323C129.16 23.8676 129.056 24.0023 128.893 24.12C128.729 24.2376 128.354 23.9376 128.351 24.0676C128.347 24.197 128.526 24.4429 128.486 24.5788C128.373 24.9717 128.654 25.3276 128.497 25.4799C128.34 25.6323 128.385 25.7164 128.662 25.8852C128.921 26.0429 128.988 26.2852 128.851 26.5581C128.768 26.7228 128.382 27.0934 128.283 27.274C128.183 27.4546 128.098 27.7616 128.15 27.9722C128.202 28.1828 128.303 28.2598 128.441 28.2487C128.579 28.2381 128.824 28.1098 128.739 28.2822C128.654 28.4545 128.641 28.4998 128.816 28.6222C128.99 28.7439 129.397 28.9181 129.677 28.9222C129.959 28.9269 130.338 28.6645 130.615 28.5087C130.892 28.3528 131.254 28.2451 131.516 28.1828C131.779 28.121 132.058 28.4481 132.202 28.851C132.394 29.3857 132.547 30.6474 132.488 31.2403C132.429 31.8332 132.186 32.3226 131.894 32.7985C131.602 33.2738 130.506 34.8249 130.151 35.3361C129.796 35.8472 129.141 36.6725 128.569 36.9113C127.998 37.1501 127.143 37.0719 126.871 37.2883C126.598 37.5042 126.871 37.7654 127.519 37.9183C128.167 38.0719 128.865 37.9477 129.533 37.8413C130.2 37.7348 130.673 37.4683 131.273 36.8401C131.873 36.2119 132.362 35.7908 132.721 35.3602C133.081 34.9296 133.94 33.6573 134.338 33.185C134.735 32.712 134.772 32.0068 134.723 31.5162C134.674 31.0256 135.512 32.2121 135.726 32.5897C135.939 32.9667 136.437 34.8014 136.586 35.5055C136.736 36.2096 136.843 37.0607 137.296 37.3454C137.748 37.6301 138.504 38.1577 139.282 38.3207C140.06 38.4836 140.88 38.6848 141.073 38.473C141.264 38.2613 141.077 38.0766 140.862 37.9907C140.646 37.9042 140.962 37.7272 140.314 37.5736C139.666 37.4201 139.158 37.1466 138.811 36.8654C138.464 36.5837 138.381 36.216 138.435 35.8331C138.488 35.4502 138.583 33.9661 138.429 32.9956C138.274 32.025 137.898 30.9927 137.625 30.7321C137.353 30.4709 137.941 30.5433 138.342 30.4315C139.725 30.0462 141.119 29.6345 142.012 29.1933C142.568 28.9192 143.012 28.931 142.781 29.4863C142.65 29.7998 141.983 31.0192 141.808 31.4115C141.633 31.8038 141.228 32.492 141.249 33.0044C141.27 33.5167 141.374 35.3749 141.456 36.0184C141.521 36.5213 141.882 37.8919 142.075 38.6112H143.853C143.727 38.073 143.6 37.5189 143.558 37.2878V37.2848Z" fill="#272C68"></path><path d="M23.1942 38.4063C23.1966 38.3904 23.1919 38.3669 23.1836 38.3504C23.0126 38.0175 22.9926 37.7987 22.6241 37.574C22.5062 37.5022 22.11 37.4111 21.9708 37.2846C22.0534 36.8264 22.2326 36.1693 22.3411 35.7582C22.5038 35.1423 22.9242 34.5947 23.3357 34.2741C25.2001 32.823 26.8834 31.4666 28.4883 29.789C28.3574 30.3448 28.2643 30.9401 28.1263 31.4789C28.0626 31.7283 27.9978 31.8689 27.8492 32.0677C27.4836 32.5577 27.0426 33.0777 26.6652 33.5424C26.5061 33.7388 26.5226 33.9653 26.5921 34.15C26.8993 34.9682 27.5662 36.3676 27.8362 36.9775C28.1062 37.5869 28.1015 37.5716 28.2725 37.941C28.391 38.1969 28.3892 38.1063 28.5254 38.2175C28.7412 38.394 28.9458 38.3898 29.1675 38.5069C29.2324 38.541 29.2648 38.5381 29.3344 38.5392C29.8078 38.5475 30.3143 38.5669 30.7813 38.551C30.9646 38.5451 31.0501 38.4957 31.1474 38.3575C31.2447 38.2187 31.2258 38.1093 31.171 37.9457C31.135 37.8381 31.0814 37.7181 31.0024 37.6081C30.9234 37.4981 30.855 37.4087 30.707 37.3369C30.3874 37.1822 30.0065 37.0305 29.6805 36.8658C29.5974 36.8234 29.5573 36.7864 29.5225 36.6964C29.322 36.1746 29.1127 35.6217 28.934 35.0976C28.8928 34.9764 28.871 34.9094 28.9276 34.8076C29.549 33.6882 30.1982 32.7983 31.0602 31.7983C31.4965 31.2913 32.0147 30.6889 32.4263 30.0472C32.6486 29.7007 33.0017 29.129 33.2387 28.7437C36.014 29.5819 38.7911 29.9307 41.6784 30.1878C41.9272 31.6365 42.2986 34.2112 42.4613 35.4211C42.6241 36.6311 42.8876 37.1793 42.9118 37.951C42.9224 38.2875 43.0203 38.4816 43.1482 38.6075H45.8457C45.8415 38.5987 45.8386 38.5916 45.8339 38.5822C45.7272 38.3716 45.5656 38.1575 45.4442 37.9487C45.6541 38.0299 45.8704 38.121 46.0798 38.1987C46.1293 38.2169 46.1582 38.2234 46.2083 38.2234C46.6982 38.2198 47.2083 38.2234 47.6923 38.2046C47.8256 38.1993 47.8845 38.1628 47.9553 38.0657C48.026 37.9681 48.0243 37.8946 47.9777 37.7793C47.8928 37.571 47.7926 37.3416 47.6758 37.1446C47.6145 37.0405 47.5644 37.0064 47.4411 36.9705C47.1499 36.8846 46.835 36.8781 46.5373 36.7617C46.46 36.7317 46.4471 36.854 46.4194 36.6946C46.2796 35.877 46.0756 35.9293 45.9483 34.8764C45.7908 33.5812 45.5526 31.7465 45.7348 30.1378C45.8881 28.7861 45.8769 27.1155 46.0426 25.6362C46.1635 24.5574 47.1375 23.6198 48.0066 22.9486C48.756 22.3698 49.5118 21.6204 50.526 21.681C51.4446 21.7357 52.1786 22.4286 53.1149 22.3839C53.6202 22.3598 54.03 21.9945 54.3932 21.7098C54.6131 21.5375 54.7782 21.3387 54.9274 21.1675C55.0765 20.9963 55.0907 20.9181 54.981 20.7546C54.5536 20.1187 54.0424 19.5311 53.622 18.897C53.5094 18.7276 53.4687 18.5699 53.3973 18.387C53.3891 18.3664 53.3873 18.3329 53.3814 18.3129C53.3036 18.0176 53.2865 17.7288 53.234 17.427C53.1815 17.1259 53.198 16.8335 52.9858 16.5747C52.7741 16.3159 52.6922 16.043 52.339 15.8641C51.1598 15.2677 50.4794 14.5365 48.9499 15.1254C46.3415 16.1294 43.3882 17.6876 40.7491 18.9135C36.0795 20.8222 32.7659 19.1917 28.2029 19.9122C27.687 19.994 27.6405 20.1158 27.1487 20.1887C25.6228 20.4152 24.0403 19.7164 22.4602 19.6828C20.6802 19.6446 18.8795 18.1776 17.1013 18.0223C17.0753 18.02 17.0258 17.9917 17.0075 18.017C16.9898 18.0423 16.9957 18.0852 17.0116 18.1076C17.7705 19.1764 18.215 19.6058 19.5475 20.0975C20.4726 20.4387 24.0769 21.9022 25.2343 21.9739C25.8657 22.0133 24.6918 25.5926 24.446 26.8126C24.137 28.3455 23.8021 29.6531 23.0592 31.0213C22.7279 31.6313 22.0787 32.1348 21.6961 32.7059C21.4207 33.1171 21.2444 33.403 21.1006 33.8829C20.7332 35.1053 20.4962 36.5487 20.0935 37.7346C19.9756 38.0822 20.2916 38.2951 20.3246 38.424C20.3435 38.4963 20.3895 38.5563 20.4467 38.6069H23.1783C23.1878 38.5445 23.1824 38.4775 23.1931 38.4051L23.1942 38.4063ZM45.157 37.6905C44.9695 37.6446 44.7643 37.5905 44.5857 37.5346C44.5185 37.5134 44.4931 37.4681 44.4872 37.4163C44.3899 36.5428 44.3269 35.6782 44.2644 34.8053C44.5627 35.767 44.8622 36.7281 45.157 37.6905Z" fill="#272C68"></path><path d="M5.01077 38.5469C5.134 38.5452 5.2189 38.5699 5.2873 38.6087H9.78952C10.1875 38.5928 10.5873 38.5981 10.9835 38.5487C11.6597 38.4122 14.1325 38.2981 13.9686 37.3346C13.882 36.9687 13.4852 36.7352 13.1178 36.7893C12.7706 32.7412 14.2004 32.7112 15.0181 29.6096C15.4727 27.6685 15.3666 25.6568 15.0806 23.6992C15.1007 23.2398 15.0859 22.5187 14.8607 21.6787C14.5806 20.634 14.0754 19.7835 13.9386 19.8276C13.8584 19.8535 13.9857 20.1664 13.7847 20.5581C13.724 20.6764 13.6762 20.7181 13.5188 20.9822C13.4286 21.1334 13.3602 21.2599 13.3171 21.3428C12.7641 21.0705 12.0937 21.0934 11.5465 21.3699C9.65804 19.4346 10.2005 20.7787 10.4192 22.4204C9.67573 23.1786 9.77714 24.6403 10.5395 25.3539C10.4941 25.5491 10.2925 25.6333 10.1274 25.7074C9.3255 26.0556 8.53897 26.4391 7.75362 26.8238C5.56618 27.6955 4.28497 30.0213 4.25018 32.3107C4.16941 33.773 4.38992 35.2588 4.92292 36.6246C4.86514 36.7699 4.74663 36.8987 4.58036 36.904C1.51855 36.3358 2.02973 33.4889 3.08689 31.3284C3.79147 29.7684 4.7767 28.1938 4.88637 26.4562C4.87281 24.8868 3.46955 22.6569 1.68835 23.1957C1.35581 23.3998 1.30629 23.9239 1.57633 24.1986C3.49077 25.2515 3.34219 27.025 2.35048 28.7102C1.45958 30.6672 0.197831 32.5542 0.00620915 34.7447C-0.125862 36.8929 1.91358 38.4722 3.94831 38.6087H4.57859C4.72423 38.5963 4.86809 38.5757 5.01018 38.5469H5.01077Z" fill="#272C68"></path><path d="M158.11 34.4405C158.526 34.7528 159.21 35.334 159.413 35.8622C159.48 35.9957 159.49 36.4304 159.581 36.5898C159.593 36.601 159.605 36.611 159.61 36.6121C159.623 36.6121 159.604 36.7357 159.597 36.7445C159.586 36.8092 159.624 36.7898 159.571 36.8851C159.511 37.011 159.466 37.1898 159.482 37.238C159.488 37.2551 159.485 37.261 159.445 37.3127C159.345 37.4327 159.376 37.4821 159.351 37.5939C159.344 37.6474 159.259 37.7256 159.274 37.7645C159.276 37.7898 159.271 37.7998 159.23 37.8639C159.192 37.9145 159.148 38.0209 159.114 38.0462C159.005 37.9874 158.762 37.9533 158.677 37.9921C158.597 38.0221 158.509 38.115 158.524 38.1533C158.515 38.168 158.695 38.1615 158.729 38.1633C158.668 38.1839 158.627 38.2056 158.56 38.1974C158.427 38.1944 158.253 38.2092 158.136 38.2744C158.062 38.2433 157.897 38.2274 157.823 38.2568C157.789 38.2703 157.781 38.2709 157.756 38.2644C157.636 38.2374 157.484 38.2727 157.396 38.3633C157.362 38.3956 157.354 38.4156 157.37 38.4286C157.379 38.4356 157.549 38.4703 157.685 38.4921C157.789 38.5133 157.848 38.558 157.933 38.5903H159.457C159.478 38.5644 159.498 38.5368 159.516 38.5038C159.692 38.1933 159.702 38.4515 159.932 38.4374C159.973 38.478 160.022 38.5409 160.065 38.5903H160.159C160.216 38.4927 160.19 38.3015 160.101 38.2297C160.005 38.158 159.89 38.0527 159.811 37.958C159.657 37.6733 160.237 36.6827 160.345 36.4174C160.371 36.361 160.339 36.2951 160.388 36.2522C160.521 36.0857 160.541 35.8298 160.525 35.6092C160.522 35.5351 160.503 35.5298 160.572 35.5634C160.775 35.6675 160.897 35.8104 161.096 36.178C161.204 36.3757 161.312 36.5345 161.508 36.4716C161.563 36.5627 161.603 36.6398 161.649 36.7739C161.691 36.8915 161.697 36.9027 161.725 36.9339C161.775 36.991 161.899 37.3568 161.949 37.5962C161.956 37.7139 162.03 37.6927 162.02 37.7686C161.81 37.7815 161.39 37.7421 161.427 38.0527C161.375 38.0562 161.309 38.0574 161.282 38.0939C161.16 38.058 160.995 38.0062 160.887 38.0397C160.865 38.0515 160.864 38.0515 160.842 38.0409C160.651 37.9221 160.259 38.1274 160.343 38.3027C160.377 38.3462 160.666 38.2097 160.712 38.2809C160.686 38.3974 161.37 38.3986 161.676 38.3874C161.635 38.4474 161.635 38.5244 161.654 38.5891H161.879C161.882 38.5838 161.885 38.5803 161.887 38.5791C161.923 38.5868 161.961 38.5885 161.999 38.5891H162.035C162.166 38.5821 162.297 38.5315 162.393 38.4286C162.499 38.3544 162.565 38.1168 162.614 37.9939C162.658 37.9427 162.75 37.9903 162.822 37.9903C162.905 38.0003 162.9 37.9945 162.951 37.9721C163.007 37.9962 163.152 38.0662 163.172 38.0409C163.229 38.0221 163.236 37.9609 163.192 37.8721C163.148 37.7839 163.056 37.7103 162.977 37.6998C162.948 37.6962 162.946 37.6945 162.946 37.678C162.946 37.6556 162.919 37.6327 162.877 37.618C162.734 37.5668 162.679 37.5356 162.564 37.4404C162.268 37.1421 162.257 36.6174 162.171 36.1963C162.149 36.028 162.088 35.8469 162.031 35.7834C162.009 35.7592 162.009 35.7586 162.009 35.6957C162.009 35.6328 161.988 35.4898 161.968 35.4063C161.963 35.3722 161.951 35.3628 161.982 35.3634C162.063 35.3675 162.204 35.2745 162.296 35.2687C162.456 35.2504 162.592 35.1757 162.665 35.0687C162.694 35.0263 162.696 35.0246 162.74 35.0104C162.919 34.9499 163.089 34.8087 163.172 34.6234C163.31 34.6016 163.464 34.4952 163.542 34.3716C163.565 34.3352 163.567 34.3334 163.591 34.3334C163.937 34.3111 164.193 33.9434 163.987 33.6234C164.189 33.4134 164.157 33.1181 163.935 32.9534C164.155 32.8629 164.515 32.6188 164.619 32.387C164.648 32.3305 164.652 32.3258 164.691 32.3017C164.852 32.2005 164.987 31.9741 164.968 31.7741C165.095 31.6658 165.095 31.4888 165.039 31.3223C165.287 31.2376 165.223 30.9035 165.079 30.7312C165.487 30.4412 165.812 29.9412 165.9 29.453C165.934 29.1653 165.903 28.8701 165.585 28.8542C165.629 28.693 165.579 28.4336 165.392 28.4195C165.363 28.4195 165.361 28.4177 165.349 28.3948C165.333 28.3636 165.286 28.323 165.237 28.2983C165.104 28.2283 165.007 28.3695 165.036 28.2501C165.033 28.1336 165.11 27.823 164.993 27.7707C164.831 27.7872 164.665 28.0801 164.62 28.2266C164.598 28.2277 164.508 28.2324 164.502 28.2307C164.561 28.1301 164.585 28.1171 164.816 27.8436C164.873 27.7666 164.934 27.7389 164.908 27.6701C164.974 27.6219 165.048 27.593 165.033 27.476C165.01 27.3172 164.811 27.2684 164.669 27.2654C164.517 27.2613 164.304 27.3678 164.193 27.4783C164.099 27.4348 163.975 27.5107 163.889 27.6372C163.865 27.6736 163.855 27.683 163.819 27.7025C163.643 27.793 163.491 28.013 163.458 28.2124C163.43 28.2836 163.333 28.3424 163.286 28.4242C163.15 28.6212 163.064 28.9148 163.061 29.1559C162.927 29.4247 162.818 29.663 162.784 29.9253L162.77 30.0241C162.693 30.1194 162.618 30.2412 162.581 30.3482C162.49 30.4777 162.322 30.4912 162.092 30.5335C161.697 30.5853 161.14 30.4624 160.624 30.3547C160.284 30.2865 160.148 30.2565 159.84 30.1806C159.64 30.1312 159.625 30.1259 159.614 30.1018C159.59 30.0424 159.5 29.9741 159.361 29.9077C159.099 29.783 159.108 29.7883 159.104 29.7618C158.939 29.3924 158.519 28.8989 158.538 28.4895C158.702 28.4465 158.809 28.2507 158.857 28.0854C158.889 28.0854 158.958 28.0683 158.984 28.0866C159.282 28.2995 159.292 28.0307 159.082 27.6542C159.058 27.6101 159.019 27.5472 159.03 27.493C159.048 27.4113 158.891 27.1548 158.887 27.0895C158.858 27.0301 158.916 26.8584 158.922 26.7766C158.946 26.6566 159.158 26.5613 159.312 26.4919C159.466 26.4349 159.646 26.2966 159.446 26.2096C159.478 26.1402 159.41 26.0743 159.337 26.0725C159.293 26.0725 159.199 26.1084 159.152 26.1431C159.109 26.1725 159.085 26.0949 158.952 26.156C158.901 26.0931 158.811 26.0937 158.758 26.1584C158.739 26.1796 158.731 26.1843 158.721 26.1802C158.681 26.1643 158.627 26.1819 158.597 26.2207C158.569 26.249 158.521 26.2402 158.499 26.2801C158.489 26.296 158.481 26.3013 158.466 26.3013C158.447 26.2931 158.391 26.366 158.373 26.3649C158.354 26.3649 158.312 26.406 158.299 26.4378C158.288 26.4643 158.285 26.466 158.253 26.4725C158.084 26.5043 158.115 26.6137 158.007 26.586C157.803 26.5619 157.795 26.6443 157.669 26.7078C157.608 26.7213 157.547 26.7866 157.535 26.8501C157.532 26.8666 157.527 26.8737 157.519 26.8737C157.402 26.8972 157.222 27.0784 157.238 27.2072C157.238 27.2442 157.237 27.2478 157.215 27.2684C157.131 27.3483 156.955 27.6866 156.898 27.876C156.851 27.9895 156.846 28.196 156.779 28.2466C156.721 28.2795 156.709 28.3954 156.665 28.4136C156.501 28.4648 156.366 28.6642 156.467 28.8224C156.36 28.9136 156.394 29.0677 156.493 29.1501C156.392 29.323 156.359 29.6747 156.281 29.8824C156.103 30.3829 155.806 30.8512 155.806 31.267C155.742 32.0576 156.077 32.8864 156.636 33.4476C157.083 33.8458 157.626 34.0875 158.108 34.4393L158.11 34.4405Z" fill="#272C68"></path><path d="M54.1696 26.3411C54.208 26.5575 54.2893 26.7734 54.4096 26.981C54.4857 27.1116 54.5706 27.224 54.6631 27.3228C54.8465 27.5845 55.0711 27.791 55.3217 27.9716C55.1053 28.5498 55.0287 29.4039 55.1 29.6104C55.6484 31.2097 55.1979 31.0074 55.4078 31.9015C55.6177 32.7955 55.9679 33.3267 55.7297 33.8573C55.4915 34.3878 55.0576 34.5837 54.9733 34.919C54.8895 35.2543 54.8612 35.7572 54.9733 36.2601C55.0853 36.7631 55.1555 36.6084 55.0994 36.9719C55.0434 37.3348 54.9456 38.0024 55.0994 38.086C55.2533 38.1701 55.2757 37.9754 55.3235 38.1559C55.3512 38.2595 55.3883 38.473 55.5228 38.6083H56.327C56.3241 38.5853 56.3176 38.5677 56.3176 38.5677C56.3176 38.5677 56.3541 38.5901 56.4225 38.6083H56.7332C56.827 38.5606 56.7834 38.4412 56.689 38.3024C56.5699 38.1277 56.472 37.953 56.4302 37.6666C56.3889 37.3848 56.5092 36.8366 56.4532 36.4995C56.5257 36.296 56.8176 35.929 57.1654 35.5613C57.5156 35.1913 58.4679 34.1573 58.4679 34.1573C58.4679 34.1573 58.2438 35.1419 58.4118 35.4355C58.5799 35.729 58.8947 36.099 59.0698 36.4413C59.245 36.7836 59.2939 36.9166 59.525 37.1954C59.7561 37.4748 59.8328 37.7789 59.91 37.9465C59.9873 38.1142 59.9873 38.2889 60.1064 38.3936C60.2255 38.4983 60.2396 38.4006 60.295 38.3307C60.3511 38.2607 60.4985 38.2465 60.5963 38.3307C60.6765 38.3995 60.8074 38.5142 60.9065 38.6077H61.7402C61.7402 38.6077 61.739 38.6048 61.7378 38.603C61.7378 38.603 61.8775 38.6171 62.032 38.5959C62.1859 38.5748 62.1647 38.4424 61.9689 38.2954C61.7726 38.1489 61.4507 37.9042 61.2266 37.7018C61.0026 37.4995 60.8204 36.7131 60.5338 36.3013C60.2467 35.889 60.1347 35.5607 60.2744 35.149C60.4147 34.7367 60.5686 34.1849 60.6806 33.4938C60.7927 32.802 60.7927 32.6626 60.7927 32.6626C60.7927 32.6626 61.7797 33.1167 62.634 33.4167C63.4883 33.7173 65.0284 33.9614 65.7212 33.9479C66.4146 33.9337 67.1427 33.6055 67.5979 34.0314C68.0531 34.4573 67.9617 34.562 68.1297 35.2466C68.2977 35.9313 68.648 36.1713 68.76 36.4719C68.872 36.7725 68.9074 36.636 68.9074 36.9713C68.9074 37.3066 68.9493 37.4742 68.9705 37.7748C68.9911 38.0754 69.0123 38.1936 69.0477 38.3824C69.0642 38.4718 69.0672 38.5536 69.0796 38.6083H69.2612C69.3679 38.5218 69.4463 38.3965 69.4463 38.3965C69.4463 38.3965 69.4722 38.5042 69.5188 38.6083H70.8389C70.9521 38.5218 71.0353 38.3865 71.0353 38.3865C71.0353 38.3865 71.063 38.5006 71.1125 38.6083H72.3053C72.3483 38.5448 72.2516 38.3836 72.1485 38.233C72.0294 38.0583 71.9598 36.9648 71.8195 36.5037C71.6791 36.0425 71.6579 36.4137 71.7074 36.1695C71.7564 35.9249 71.9315 35.4919 72.0294 34.8425C72.1272 34.1931 72.1697 33.7949 72.274 33.5849C72.2794 33.5749 72.2876 33.5661 72.2941 33.5567C72.4409 33.4655 72.57 33.3502 72.6944 33.1797C72.9745 32.7955 73.5275 32.5932 74.0387 32.3973C74.5499 32.2014 74.9909 32.0203 75.1661 31.9715C75.3412 31.9226 75.8801 31.8385 76.2374 31.8668C76.5941 31.895 77.0982 31.9509 77.6165 31.832C78.1347 31.7132 78.3028 31.6156 78.4496 31.5385C78.5964 31.4615 78.6453 31.4338 78.6453 31.4338C78.6453 31.4338 78.9112 31.4268 79.0233 31.2732C79.0233 31.2732 79.1282 31.3644 79.3239 31.2385C79.5203 31.1127 79.6529 30.9103 79.7231 30.4492C79.7933 29.988 79.8281 29.6109 79.5344 29.7439L79.2402 29.8768C79.2402 29.8768 78.946 29.6809 78.617 29.4715C78.288 29.2621 77.9166 28.9686 77.6365 28.5775C77.3564 28.1863 77.1742 27.7881 76.9437 27.5857C76.7126 27.3834 76.7126 27.411 76.6778 27.334C76.6424 27.2569 76.5168 26.9569 76.5168 26.9569C76.5168 26.9569 76.8806 26.7193 76.9997 26.2722C77.1188 25.8252 77.028 25.5599 76.9508 25.1405C76.8741 24.7217 76.8671 24.4282 76.6919 24.47C76.5168 24.5117 76.3488 24.9729 76.0198 25.3223C75.6908 25.6717 75.4455 25.8181 75.4455 25.8181C75.4455 25.8181 75.1655 25.6293 74.85 25.6505C74.85 25.6505 74.521 25.2799 74.192 24.987C73.863 24.6935 73.8353 24.2535 73.6879 24.2747C73.5411 24.2958 73.0299 25.0917 72.8973 25.5529C72.8973 25.5529 71.5883 25.6858 70.9227 25.6928C70.2576 25.6999 69.2423 25.6858 68.2972 25.644C67.352 25.6023 66.0985 25.6717 64.6988 25.5881C63.2985 25.5046 61.8422 25.3505 60.9318 25.3229C60.0215 25.2952 58.8104 25.2252 57.8653 25.7211C57.031 26.1593 56.8948 26.0534 55.9585 27.0899C55.6366 27.0052 55.3418 26.8558 55.08 26.5946C55.2056 26.584 55.3312 26.5558 55.4544 26.5064C56.3406 26.1505 56.1985 24.8293 55.1802 24.8146C54.7227 24.8082 54.4285 25.0817 54.2805 25.4464C54.2363 25.5411 54.2038 25.6381 54.1814 25.7364C54.0629 25.6117 53.9662 25.4687 53.9008 25.3252C53.8271 25.1646 53.5488 25.1858 53.5741 25.3887C53.6243 25.7852 53.8554 26.124 54.1696 26.3417V26.3411ZM70.1179 36.8819C70.1456 36.7448 70.2128 36.546 70.2835 36.286C70.3095 36.3572 70.3325 36.4178 70.349 36.4631C70.461 36.7636 70.4958 36.8613 70.4958 37.1966C70.4958 37.5319 70.5377 37.6995 70.5589 37.9995C70.5795 38.2889 70.5996 38.1948 70.6326 38.3559C70.6096 38.3189 70.5848 38.2807 70.5589 38.243C70.4398 38.0683 70.3702 37.6771 70.2299 37.216C70.0901 36.7548 70.0689 37.126 70.1179 36.8819ZM55.3807 25.4334C55.5788 25.5858 55.6484 25.8823 55.2492 26.0481C55.0918 26.114 54.9349 26.1222 54.7852 26.0922C54.7657 26.0117 54.7575 25.9281 54.7645 25.8417C54.7952 25.4917 55.103 25.3293 55.3801 25.4329L55.3807 25.4334Z" fill="#272C68"></path><path d="M79.3718 65.579H77.432L76.7493 70.427H77.6207L77.8748 68.603H78.5847L79.646 70.427H80.6637L79.5605 68.5694C80.2663 68.4394 80.7857 67.9312 80.88 67.2554C80.9455 66.806 80.8335 66.3878 80.5652 66.0784C80.2857 65.756 79.8618 65.5784 79.3724 65.5784H79.3718V65.579ZM79.192 67.8159H77.9845L78.1879 66.406H79.3453C79.557 66.406 79.7397 66.4819 79.8594 66.6195C79.9803 66.7589 80.0304 66.953 79.9998 67.1671C79.9467 67.5554 79.6224 67.8165 79.192 67.8165V67.8159Z" fill="white"></path><path d="M81.2372 70.4272H84.4782L84.5938 69.6001H82.2248L82.3893 68.4031H84.5101L84.6357 67.5761H82.5119L82.6764 66.4061H85.0124L85.128 65.5791H81.9205L81.2372 70.4272Z" fill="white"></path><path d="M87.3273 65.4985C86.4434 65.4985 85.7224 66.0403 85.6121 66.7867C85.4623 67.8302 86.299 68.1261 86.9717 68.3637C87.5666 68.5743 87.9287 68.7237 87.8679 69.1302C87.8202 69.4643 87.4523 69.7066 86.9935 69.7066C86.6651 69.7066 86.3886 69.6031 86.2335 69.4231C86.1351 69.3084 86.0956 69.1696 86.1186 69.0202L86.1416 68.8731H85.2554L85.2389 68.9814C85.184 69.339 85.2778 69.6707 85.5095 69.9407C85.8191 70.3001 86.3497 70.5066 86.9664 70.5066C87.9133 70.5066 88.6515 69.9519 88.7612 69.1584C88.908 68.0902 88.0625 67.8032 87.3833 67.5726C86.7984 67.3744 86.4434 67.232 86.5054 66.8344C86.5525 66.4832 86.9405 66.2991 87.3001 66.2991C87.5955 66.2991 87.8443 66.3903 87.9835 66.5491C88.0761 66.6544 88.1144 66.7856 88.0949 66.9273L88.0755 67.072H88.9504L88.9681 66.9661C89.0259 66.6226 88.9398 66.3038 88.7199 66.0444C88.4257 65.6979 87.9186 65.4991 87.3273 65.4991V65.4985Z" fill="white"></path><path d="M92.1225 66.3391C92.8996 66.3391 93.4904 66.7314 93.6266 67.3385L93.649 67.4379H94.5422L94.5251 67.2955C94.3948 66.2209 93.4426 65.4985 92.1561 65.4985C90.8696 65.4985 89.6745 66.482 89.494 67.7861C89.3897 68.5267 89.5731 69.2114 90.0105 69.7137C90.4557 70.2248 91.1278 70.5066 91.9026 70.5066C93.0393 70.5066 93.991 69.8107 94.3264 68.7331L94.3777 68.5678H93.4692L93.4379 68.6502C93.2003 69.2772 92.6249 69.6666 91.9356 69.6666C91.4309 69.6666 90.9946 69.4843 90.7075 69.1525C90.4203 68.8214 90.3018 68.3649 90.3737 67.8673C90.4976 66.9961 91.2493 66.3391 92.1225 66.3391Z" fill="white"></path><path d="M98.1601 68.6177C98.0793 69.1965 97.5398 69.6671 96.9585 69.6671C96.597 69.6671 96.3052 69.5512 96.1141 69.333C95.9231 69.1148 95.8482 68.8083 95.8978 68.4477L96.3122 65.5796H95.4473L95.0375 68.3918C94.9526 68.9901 95.0865 69.5112 95.4243 69.8988C95.7663 70.2912 96.2946 70.5077 96.9125 70.5077C97.9897 70.5077 98.8735 69.7441 99.0144 68.6936L99.4483 65.5796H98.5834L98.1607 68.6183H98.1601V68.6177Z" fill="white"></path><path d="M99.7455 70.4272H102.986L103.102 69.6001H100.732L100.898 68.4031H103.018L103.144 67.5761H101.02L101.184 66.4061H103.52L103.636 65.5791H100.429L99.7455 70.4272Z" fill="white"></path><path d="M104.314 69.3665C104.031 69.3665 103.784 69.5759 103.741 69.8535V69.8547C103.717 70.02 103.758 70.1741 103.858 70.2894C103.961 70.4076 104.113 70.4729 104.288 70.4729C104.571 70.4729 104.82 70.2576 104.855 69.9823C104.876 69.8123 104.832 69.6553 104.73 69.5412C104.63 69.4282 104.482 69.3665 104.314 69.3665H104.314Z" fill="white"></path><path d="M112.318 68.5685H111.409L111.378 68.6508C111.14 69.2779 110.565 69.6673 109.876 69.6673C109.371 69.6673 108.935 69.4849 108.647 69.1537C108.36 68.8226 108.242 68.3661 108.314 67.8685C108.438 66.9974 109.189 66.3403 110.062 66.3403C110.84 66.3403 111.43 66.7327 111.567 67.3397L111.589 67.4391H112.482L112.465 67.2967C112.335 66.2221 111.383 65.4998 110.096 65.4998C108.81 65.4998 107.615 66.4833 107.434 67.7867C107.329 68.5273 107.512 69.212 107.951 69.7149C108.396 70.2261 109.068 70.5078 109.843 70.5078C110.98 70.5078 111.932 69.812 112.267 68.7343L112.318 68.5691L112.318 68.5685Z" fill="white"></path><path d="M114.703 65.5791L112.041 70.4272H113.006L113.614 69.3154H115.688L115.975 70.4272H116.901L115.605 65.5791H114.703ZM115.476 68.4949H114.052L115.017 66.7173L115.476 68.4949Z" fill="white"></path><path d="M120.082 65.579H118.142L117.459 70.427H118.33L118.585 68.603H119.294L120.356 70.427H121.373L120.27 68.5694C120.976 68.4394 121.495 67.9312 121.59 67.2554C121.655 66.806 121.543 66.3878 121.275 66.0784C120.995 65.756 120.572 65.5784 120.082 65.5784L120.082 65.579ZM119.902 67.8159H118.694L118.898 66.406H120.055C120.267 66.406 120.449 66.4819 120.569 66.6195C120.69 66.7589 120.74 66.953 120.709 67.1671C120.656 67.5554 120.332 67.8165 119.902 67.8165V67.8159Z" fill="white"></path><path d="M121.947 70.4272H125.188L125.304 69.6001H122.934L123.099 68.4031H125.22L125.346 67.5761H123.221L123.386 66.4061H125.722L125.837 65.5791H122.631L121.947 70.4272Z" fill="white"></path><path d="M126.515 69.3665C126.232 69.3665 125.986 69.5759 125.942 69.8535V69.8547C125.918 70.02 125.959 70.1741 126.06 70.2894C126.162 70.4076 126.315 70.4729 126.489 70.4729C126.772 70.4729 127.022 70.2576 127.057 69.9823C127.077 69.8123 127.033 69.6553 126.932 69.5412C126.832 69.4282 126.684 69.3665 126.516 69.3665H126.515Z" fill="white"></path><path d="M132.185 65.579H130.212L129.529 70.427H130.4L130.641 68.7159H131.985C132.886 68.7159 133.602 68.1348 133.726 67.3013C133.792 66.8366 133.675 66.4054 133.398 66.0872C133.112 65.759 132.682 65.5784 132.185 65.5784V65.579ZM131.985 67.8889H130.756L130.967 66.4054H132.158C132.377 66.4054 132.568 66.4848 132.694 66.6289C132.822 66.776 132.877 66.9807 132.846 67.2048C132.786 67.6136 132.44 67.8889 131.985 67.8889Z" fill="white"></path><path d="M136.633 65.579H134.694L134.01 70.427H134.882L135.136 68.603H135.846L136.907 70.427H137.925L136.822 68.5694C137.527 68.4394 138.047 67.9312 138.141 67.2554C138.207 66.806 138.095 66.3878 137.826 66.0784C137.547 65.756 137.123 65.5784 136.634 65.5784H136.633V65.579ZM137.261 67.1665C137.208 67.5548 136.884 67.8159 136.453 67.8159H135.246L135.449 66.406H136.606C136.818 66.406 137.001 66.4819 137.121 66.6195C137.241 66.7589 137.292 66.953 137.261 67.1671V67.1665Z" fill="white"></path><path d="M141.268 65.4985C139.932 65.4985 138.788 66.482 138.606 67.7855C138.501 68.5261 138.685 69.2108 139.123 69.7137C139.569 70.2248 140.24 70.5066 141.015 70.5066C142.344 70.5066 143.488 69.5237 143.678 68.2208C143.785 67.4849 143.603 66.802 143.167 66.2985C142.719 65.7826 142.046 65.4985 141.269 65.4985H141.268ZM142.797 68.1379C142.673 69.0096 141.921 69.6666 141.049 69.6666C140.544 69.6666 140.107 69.4843 139.82 69.1531C139.533 68.822 139.414 68.3655 139.487 67.8679C139.612 66.9967 140.363 66.3391 141.235 66.3391C141.74 66.3391 142.176 66.5214 142.464 66.8526C142.751 67.1838 142.87 67.6402 142.798 68.1379H142.797Z" fill="white"></path><path d="M144.029 66.4061H145.417L144.85 70.4272H145.722L146.289 66.4061H147.677L147.792 65.5791H144.145L144.029 66.4061Z" fill="white"></path><path d="M147.843 70.4272H151.084L151.2 69.6001H148.83L148.995 68.4031H151.116L151.241 67.5761H149.117L149.282 66.4061H151.618L151.733 65.5791H148.526L147.843 70.4272Z" fill="white"></path><path d="M154.634 66.3391C155.411 66.3391 156.002 66.7314 156.138 67.3385L156.16 67.4379H157.053L157.036 67.2955C156.905 66.2209 155.954 65.4985 154.667 65.4985C153.381 65.4985 152.186 66.482 152.005 67.7855C151.9 68.5261 152.084 69.2108 152.522 69.7137C152.967 70.2248 153.639 70.5066 154.414 70.5066C155.551 70.5066 156.502 69.8107 156.838 68.7331L156.889 68.5678H155.98L155.949 68.6502C155.711 69.2772 155.136 69.6666 154.447 69.6666C153.942 69.6666 153.506 69.4843 153.219 69.1531C152.931 68.822 152.813 68.3655 152.885 67.8679C153.009 66.9967 153.76 66.3397 154.634 66.3397V66.3391Z" fill="white"></path><path d="M160.991 65.5791H157.343L157.227 66.4061H158.615L158.048 70.4272H158.919L159.487 66.4061H160.875L160.991 65.5791Z" fill="white"></path><path d="M161.37 69.5412C161.27 69.4282 161.122 69.3665 160.954 69.3665C160.671 69.3665 160.425 69.5759 160.381 69.8535V69.8553C160.357 70.0205 160.399 70.1747 160.498 70.2899C160.601 70.4082 160.754 70.4735 160.928 70.4735C161.211 70.4735 161.461 70.2582 161.495 69.9829C161.516 69.8129 161.472 69.6559 161.37 69.5417H161.37V69.5412Z" fill="white"></path></svg>