<svg xmlns="http://www.w3.org/2000/svg" width="212" height="95" viewBox="0 0 212 95" fill="none"><path d="M5.76522 60.2734H9.7395L15.3869 75.2588H11.695L10.7831 72.6301H4.6794L3.7457 75.2588H0.140381L5.76522 60.2734ZM9.67474 69.5262L7.71998 63.988L5.76522 69.5262H9.67474Z" fill="white"></path><path d="M16.7783 60.2734H20.9484L25.1614 68.0044L29.3969 60.2734H33.5233V75.2588H30.1574V65.2673L26.0958 72.7393H24.1847L20.1449 65.2673V75.2588H16.7783V60.2734Z" fill="white"></path><path d="M36.3711 60.2732H46.3181V63.4441H39.7377V66.136H45.6012V69.3069H39.7377V72.087H46.4273V75.2578H36.3711V60.2725V60.2732Z" fill="white"></path><path d="M48.6003 60.2734H55.3547C58.3305 60.2734 60.5676 62.4232 60.5676 65.2899C60.5676 67.3968 59.3289 69.0699 57.4615 69.786L61.0239 75.2596H56.8539L53.7041 70.1339H51.967V75.2596H48.6003V60.2742V60.2734ZM51.967 63.4451V67.2025H55.2899C56.3328 67.2025 57.1144 66.3983 57.1144 65.3351C57.1144 64.2718 56.3328 63.4458 55.2899 63.4458H51.967V63.4451Z" fill="white"></path><path d="M62.6965 60.2734H66.0632V75.2588H62.6965V60.2734Z" fill="white"></path><path d="M68.1924 67.7673C68.1924 63.3577 71.6027 60.0137 76.1199 60.0137C79.9857 60.0137 83.07 62.4895 83.7431 65.9864H80.1597C79.5949 64.357 78.0309 63.25 76.1199 63.25C73.5785 63.25 71.6463 65.183 71.6463 67.768C71.6463 70.3531 73.5793 72.286 76.1199 72.286C78.0309 72.286 79.5949 71.1776 80.1597 69.5496H83.7431C83.07 73.0458 79.9857 75.5224 76.1199 75.5224C71.6027 75.5224 68.1924 72.1768 68.1924 67.7688V67.7673Z" fill="white"></path><path d="M89.1524 60.2734H93.1267L98.7741 75.2588H95.0822L94.1703 72.6301H88.0673L87.1336 75.2588H83.5283L89.1532 60.2734H89.1524ZM93.0619 69.5262L91.1072 63.988L89.1524 69.5262H93.0619Z" fill="white"></path><path d="M100.166 60.2734H103.554L109.788 69.4381V60.2734H113.154V75.2588H109.744L103.533 66.0933V75.2588H100.166V60.2734Z" fill="white"></path><path d="M120.779 60.2734H124.146V66.137H130.162V60.2734H133.528V75.2588H130.162V69.3079H124.146V75.2588H120.779V60.2734Z" fill="white"></path><path d="M136.135 69.4381V60.2734H139.502V69.3945C139.502 71.0458 140.718 72.2837 142.391 72.2837C144.063 72.2837 145.28 71.045 145.28 69.3945V60.2734H148.646V69.4381C148.646 72.914 145.93 75.5201 142.391 75.5201C138.851 75.5201 136.135 72.9132 136.135 69.4381Z" fill="white"></path><path d="M151.232 60.2734H155.402L159.615 68.0044L163.851 60.2734H167.977V75.2588H164.612V65.2673L160.55 72.7393H158.639L154.599 65.2673V75.2588H151.232V60.2734Z" fill="white"></path><path d="M174.974 60.2734H178.948L184.595 75.2588H180.903L179.992 72.6301H173.889L172.955 75.2588H169.35L174.974 60.2734H174.974ZM178.882 69.5262L176.928 63.988L174.973 69.5262H178.882Z" fill="white"></path><path d="M185.987 60.2734H189.375L195.608 69.4381V60.2734H198.974V75.2588H195.565L189.353 66.0933V75.2588H185.987V60.2734Z" fill="white"></path><path d="M201.82 60.2732H211.767V63.4441H205.187V66.136H211.05V69.3069H205.187V72.087H211.876V75.2578H201.82V60.2725V60.2732Z" fill="white"></path><path d="M0.857422 90.072H4.31063C4.31063 91.0494 5.33093 91.8318 6.61252 91.8318C7.76384 91.8318 8.71939 91.2241 8.71939 90.377C8.71939 88.0314 1.09612 89.0517 1.09612 83.9698C1.09612 81.1468 3.46352 79.3223 6.48226 79.3223C9.50099 79.3223 11.9557 81.277 11.9557 83.8832H8.50253C8.50253 82.9924 7.61174 82.3199 6.46117 82.3199C5.41903 82.3199 4.55008 82.841 4.55008 83.6881C4.55008 86.0556 12.1734 84.774 12.1734 89.9862C12.1734 92.9176 9.71861 94.8302 6.57036 94.8302C3.42211 94.8302 0.858175 92.7444 0.858175 90.0728L0.857422 90.072Z" fill="white"></path><path d="M13.542 87.0749C13.542 82.6653 16.9523 79.3213 21.4695 79.3213C25.9867 79.3213 29.3969 82.6661 29.3969 87.0749C29.3969 91.4837 25.9874 94.8285 21.4695 94.8285C16.9515 94.8285 13.542 91.4829 13.542 87.0749ZM25.9437 87.0749C25.9437 84.4898 24.0101 82.5569 21.4695 82.5569C18.9289 82.5569 16.996 84.4898 16.996 87.0749C16.996 89.6599 18.9289 91.5929 21.4695 91.5929C24.0101 91.5929 25.9437 89.6592 25.9437 87.0749Z" fill="white"></path><path d="M30.7881 87.0749C30.7881 82.6653 34.1984 79.3213 38.7156 79.3213C42.5814 79.3213 45.6657 81.7971 46.3388 85.294H42.7554C42.1906 83.6646 40.6266 82.5577 38.7156 82.5577C36.1742 82.5577 34.242 84.4906 34.242 87.0756C34.242 89.6607 36.175 91.5936 38.7156 91.5936C40.6266 91.5936 42.1906 90.4852 42.7554 88.8572H46.3388C45.6657 92.3534 42.5814 94.83 38.7156 94.83C34.1984 94.83 30.7881 91.4844 30.7881 87.0764V87.0749Z" fill="white"></path><path d="M48.3613 79.583H51.7279V94.5684H48.3613V79.583Z" fill="white"></path><path d="M54.5938 79.5828H64.5407V82.7536H57.9604V85.4456H63.8239V88.6165H57.9604V91.3965H64.6499V94.5674H54.5938V79.582V79.5828Z" fill="white"></path><path d="M69.9509 82.7539H66.0195V79.583H77.2481V82.7539H73.3168V94.5684H69.9501V82.7539H69.9509Z" fill="white"></path><path d="M83.6779 89.4207L77.9875 79.582H81.8316L85.4158 85.9448L88.9774 79.582H92.7567L87.0453 89.4207V94.5682H83.6787V89.4207H83.6779Z" fill="white"></path><path d="M120.272 47.853C119.963 47.4516 119.376 46.5239 119.314 46.2769C119.252 46.0292 119.599 43.8433 119.623 40.7146C119.626 40.3215 119.646 38.5354 119.777 37.1303C119.872 36.1108 120.087 35.3073 120.087 35.3073C122.064 34.4737 122.311 33.3683 122.311 33.3683C123.269 33.8322 125.37 34.3811 127.039 34.5046C128.707 34.6281 130.499 35.2772 132.724 35.3389C134.948 35.3999 137.328 34.9986 137.304 35.2154C137.28 35.4316 137.173 37.564 137.019 38.3366C136.864 39.1092 136.463 40.2831 135.783 41.5496C135.103 42.8162 134.794 43.774 134.578 44.4848C134.361 45.1956 133.836 45.9991 132.631 46.3387C131.427 46.6783 131.302 47.3891 131.179 47.6052C131.067 47.8018 132.823 48.8996 134.1 49.4237H138.579C138.641 48.993 138.649 48.4343 138.719 48.0691C138.842 47.42 138.842 47.234 139.305 46.7717C139.769 46.3078 139.738 45.9682 139.985 44.6083C140.232 43.2491 140.912 41.3644 141.036 40.6219C141.159 39.881 141.792 38.6288 142.194 38.1657C142.596 37.7026 143.94 36.2651 143.94 36.2651C144.249 36.4504 146.319 37.3773 147.246 37.5625C147.648 37.6431 148.117 38.0821 148.52 38.6243C148.528 39.0873 148.34 39.4503 148.175 39.93C147.943 40.6016 148.266 41.3862 148.266 41.3862C148.266 41.3862 148.567 40.8998 148.845 40.5512C148.992 40.3667 149.114 40.0459 149.191 39.7681C149.353 40.134 149.449 40.4721 149.44 40.7138C149.409 41.5798 151.201 45.411 151.449 45.9358C151.696 46.4614 151.449 47.2333 151.201 47.5427C150.954 47.8515 150.428 48.0992 150.274 48.4079C150.139 48.6775 150.122 49.2724 150.12 49.423H156.756C156.988 49.2987 157.237 48.9471 157.38 48.3462C157.535 47.6971 156.36 46.3071 156.113 46.0285C155.866 45.7506 155.866 44.4223 155.774 44.1128C155.681 43.8041 154.785 42.5993 153.857 41.0542C152.931 39.509 153.023 36.7282 152.745 35.1831C152.467 33.6387 151.911 32.1553 151.911 32.1553C151.911 32.1553 152.114 31.4143 152.498 30.3014C153.758 26.6524 152.375 22.7308 151.262 19.8265C150.15 16.9222 147.462 14.295 142.456 11.5759C137.45 8.85684 131.981 10.1542 130.652 10.2777C129.323 10.4012 126.418 9.96901 123.699 9.56766C123.37 9.51872 123.038 9.46902 122.708 9.42008C122.51 8.82295 122.232 8.42085 122.117 7.92538C121.932 7.12193 120.944 7.24543 119.708 6.62722C118.472 6.00976 118.224 5.26806 116.618 4.71235C115.269 4.24549 113.485 5.91187 112.948 6.45854C112.6 6.37195 112.221 6.31849 111.802 6.31849C110.066 6.31849 108.847 7.32374 108.847 7.32374C108.086 7.32374 106.259 8.48109 105.772 8.84705C105.284 9.213 103.6 10.1731 102.604 10.4005C101.175 10.7273 98.6452 12.8673 98.1272 13.2024C97.6099 13.5375 94.381 16.1255 92.4323 14.5126C90.4828 12.8974 90.3917 11.4358 91.1229 9.24312C91.854 7.0504 95.6302 5.86217 97.2748 5.07077C98.9193 4.27862 99.3455 3.57834 99.5895 2.35999C99.8327 1.1424 99.4065 0.563343 99.0112 0.137148C98.6151 -0.289048 98.3109 0.381118 97.8538 0.746321C97.3968 1.11228 97.0007 1.24857 97.0007 1.24857C96.9856 1.56859 97.445 1.26965 97.9449 1.79148C98.4013 2.26888 97.9645 2.71616 96.3915 3.28843C93.2546 4.43073 87.4377 6.38023 87.2246 11.1C87.0394 15.1925 89.3722 17.819 91.7825 19.2595C89.3179 19.3724 87.4114 19.1631 84.3068 18.4605C83.3204 18.2361 82.8083 18.1533 82.7767 18.3423C82.724 18.6631 88.6417 21.8091 94.753 20.9289C95.1393 20.8731 95.5083 20.8106 95.8637 20.7429C96.4615 20.8505 97.0489 20.9161 97.5963 20.9439C94.3637 22.4838 93.3464 22.901 88.9369 22.1495C87.94 21.9793 87.1169 21.7692 87.1222 21.9612C87.1425 22.7496 92.6815 25.2789 98.2574 22.6284C99.5187 22.029 100.604 21.3761 101.534 20.7188C101.248 21.7933 100.863 23.1811 100.717 23.4363C100.473 23.8625 98.8899 26.8165 99.6821 27.3956C100.474 27.9739 100.504 26.1471 101.662 25.8422C102.819 25.5372 103.154 24.8979 103.458 24.8068C103.763 24.7157 105.407 25.873 107.265 25.2639C108.576 24.8339 109.354 24.4506 109.701 24.2616C109.88 24.3783 110.351 25.0244 110.879 25.6991C111.436 26.4092 112.053 26.7186 112.424 26.8421C112.795 26.9656 112.702 27.1817 112.795 27.739C112.887 28.2947 113.289 28.7578 113.289 28.7578C113.289 28.7578 113.382 29.8398 113.228 30.5808C113.073 31.3225 112.269 33.5784 111.528 35.2471C110.961 36.5234 109.674 39.6958 109.674 40.4992C109.674 41.3027 110.231 43.7439 111.323 44.4073C112.795 45.3018 113.643 46.7408 113.814 47.2664C114.068 48.042 113.35 48.7874 113.407 49.4245H120.639C120.657 49.0276 120.52 48.1745 120.273 47.8537H120.272V47.853ZM151.72 28.1313C151.72 29.8466 151.524 30.7728 151.524 30.7728C151.524 30.7728 151.343 30.4716 151.412 29.5439C151.482 28.6177 151.541 26.6938 151.364 25.9062C151.364 25.9062 151.72 26.4159 151.72 28.1305V28.1313ZM114.804 42.4457C114.804 42.4457 114.278 41.9201 114.124 41.3644C113.969 40.8079 114.71 40.0971 114.804 40.2824C114.896 40.4683 114.804 42.4457 114.804 42.4457Z" fill="white"></path><path d="M183.339 47.7294C183.242 47.1797 183.29 45.7286 183.4 45.0284C183.512 44.3273 183.591 45.0525 185.465 45.8747C186.096 46.1511 187.843 47.0351 189.683 47.2309C190.228 47.2889 188.035 48.7293 187.45 49.3558C187.428 49.3792 187.41 49.401 187.389 49.4244H190.054C190.2 49.3363 190.342 49.2474 190.473 49.1555C191.18 48.6578 191.733 47.8016 192.038 47.1601C192.343 46.5185 192.235 46.1104 191.473 45.8981C190.711 45.6865 189.906 45.1782 189.06 44.8168C188.089 44.4019 187.071 43.5691 186.875 42.9147C186.678 42.2603 187.303 41.487 187.935 40.4637C188.567 39.4396 189.403 38.2522 190.101 37.2153C190.8 36.1784 190.781 35.7944 190.49 35.3652C190.25 35.0098 189.138 34.3622 190.191 34.1845C191.244 34.0068 194.912 32.6589 195.703 32.2673C198.176 31.0422 199.22 29.3924 199.514 28.9677C200.718 27.2321 201.182 24.2638 201.456 23.4234C202.072 21.5402 202.309 20.501 200.65 18.346C198.991 16.1909 195.186 16.23 194.5 16.102C193.814 15.974 193.193 15.3859 192.732 15.916C192.271 16.4462 192.87 16.8558 193.585 16.9921C195.13 17.2865 197.821 17.1269 199.296 18.4785C200.77 19.8294 200.81 21.1817 200.409 22.513C200.008 23.8443 199.66 24.8684 199.315 25.9956C198.97 27.1229 198.31 28.2569 196.779 29.5874C195.248 30.918 193.938 31.1491 192.363 31.6213C191.536 31.869 189.005 31.9104 188.237 31.8532C187.469 31.7967 187.469 31.232 185.164 30.4971C182.859 29.7621 179.458 30.0392 178.105 30.165C176.753 30.2907 174.178 30.6409 173.511 30.8946C172.845 31.1484 171.851 31.116 170.647 30.8193C169.981 30.6552 169.643 30.5189 169.185 30.2877C168.726 30.0558 168.282 29.6221 167.033 29.6055C165.929 29.5912 164.321 29.2064 163.837 29.2185C163.353 29.2305 163.495 29.3954 163.97 29.5694C164.215 29.6597 164.741 29.9511 164.846 30.2523C164.951 30.5535 164.819 30.726 164.61 30.8766C164.4 31.0272 163.922 30.6431 163.918 30.8095C163.913 30.9752 164.141 31.29 164.091 31.4639C163.945 31.9669 164.305 32.4225 164.104 32.6175C163.904 32.8125 163.961 32.9202 164.315 33.1363C164.646 33.3381 164.732 33.6483 164.556 33.9977C164.451 34.2086 163.958 34.683 163.831 34.9141C163.704 35.1453 163.595 35.5384 163.661 35.8079C163.727 36.0775 163.857 36.1761 164.033 36.1618C164.209 36.1483 164.521 35.9841 164.413 36.2048C164.305 36.4254 164.288 36.4834 164.512 36.64C164.735 36.7959 165.253 37.0187 165.612 37.024C165.971 37.03 166.456 36.6942 166.81 36.4947C167.163 36.2951 167.625 36.1573 167.96 36.0775C168.296 35.9984 168.652 36.4171 168.836 36.9329C169.081 37.6174 169.277 39.2326 169.201 39.9916C169.126 40.7506 168.816 41.3771 168.443 41.9863C168.07 42.5947 166.67 44.5803 166.216 45.2347C165.763 45.889 164.927 46.9455 164.197 47.2512C163.467 47.5569 162.375 47.4568 162.028 47.7339C161.68 48.0102 162.028 48.3446 162.855 48.5403C163.683 48.7369 164.575 48.578 165.427 48.4417C166.28 48.3054 166.883 47.9643 167.649 47.1601C168.416 46.3559 169.041 45.8167 169.5 45.2656C169.958 44.7144 171.056 43.0856 171.563 42.481C172.071 41.8756 172.118 40.9727 172.056 40.3447C171.993 39.7167 173.063 41.2355 173.336 41.7189C173.609 42.2016 174.245 44.5502 174.435 45.4515C174.626 46.3529 174.764 47.4425 175.341 47.8069C175.919 48.1714 176.884 48.8468 177.878 49.0554C178.872 49.264 179.919 49.5215 180.165 49.2504C180.41 48.9793 180.17 48.7429 179.895 48.6329C179.62 48.5223 180.023 48.2956 179.196 48.0991C178.368 47.9025 177.719 47.5524 177.276 47.1925C176.834 46.8318 176.727 46.3612 176.796 45.871C176.865 45.3808 176.986 43.481 176.788 42.2385C176.591 40.9961 176.111 39.6746 175.762 39.341C175.414 39.0067 176.166 39.0993 176.678 38.9562C178.444 38.463 180.224 37.9359 181.365 37.3711C182.074 37.0203 182.641 37.0353 182.346 37.7461C182.18 38.1475 181.327 39.7084 181.104 40.2107C180.88 40.7129 180.364 41.594 180.39 42.2498C180.417 42.9057 180.55 45.2844 180.655 46.1082C180.737 46.752 181.199 48.5064 181.445 49.4274H183.715C183.555 48.7384 183.392 48.029 183.339 47.7331V47.7294Z" fill="white"></path><path d="M29.621 49.1657C29.624 49.1454 29.618 49.1153 29.6074 49.0942C29.3891 48.668 29.3635 48.3879 28.8928 48.1003C28.7422 48.0084 28.2362 47.8917 28.0585 47.7298C28.164 47.1432 28.3929 46.3021 28.5314 45.7758C28.7392 44.9874 29.2761 44.2863 29.8017 43.876C32.1827 42.0183 34.3324 40.2819 36.3821 38.1344C36.2149 38.8459 36.0959 39.608 35.9197 40.2977C35.8384 40.617 35.7556 40.797 35.5658 41.0515C35.099 41.6787 34.5358 42.3444 34.0538 42.9392C33.8505 43.1907 33.8716 43.4806 33.9605 43.7171C34.3528 44.7645 35.2044 46.5559 35.5493 47.3367C35.8941 48.1168 35.8881 48.0972 36.1065 48.5701C36.2578 48.8977 36.2556 48.7817 36.4295 48.924C36.7051 49.1499 36.9664 49.1447 37.2495 49.2945C37.3324 49.3382 37.3738 49.3344 37.4626 49.3359C38.0673 49.3465 38.7141 49.3713 39.3105 49.351C39.5446 49.3435 39.6538 49.2802 39.7781 49.1032C39.9023 48.9255 39.8782 48.7855 39.8082 48.5762C39.7623 48.4384 39.6937 48.2847 39.5928 48.1439C39.4919 48.0031 39.4046 47.8887 39.2156 47.7968C38.8075 47.5988 38.321 47.4045 37.9046 47.1937C37.7985 47.1394 37.7473 47.092 37.7028 46.9768C37.4468 46.3089 37.1795 45.6011 36.9513 44.9301C36.8986 44.775 36.8708 44.6892 36.9431 44.5589C37.7367 43.126 38.5658 41.9867 39.6666 40.7066C40.2238 40.0575 40.8857 39.2864 41.4113 38.4649C41.6952 38.0214 42.1462 37.2895 42.4489 36.7963C45.9932 37.8693 49.5398 38.3158 53.2272 38.6449C53.545 40.4995 54.0194 43.7954 54.2272 45.3443C54.435 46.8932 54.7716 47.595 54.8025 48.5829C54.816 49.0136 54.941 49.2621 55.1044 49.4233H58.5494C58.5441 49.412 58.5403 49.4029 58.5343 49.3909C58.398 49.1213 58.1917 48.8472 58.0366 48.5799C58.3046 48.6838 58.581 48.8005 58.8483 48.8999C58.9115 48.9233 58.9484 48.9316 59.0124 48.9316C59.6382 48.927 60.2895 48.9316 60.9077 48.9075C61.0779 48.9007 61.1532 48.854 61.2436 48.7298C61.3339 48.6048 61.3316 48.5106 61.2722 48.3631C61.1637 48.0965 61.0357 47.8028 60.8866 47.5506C60.8083 47.4173 60.7443 47.3736 60.5869 47.3277C60.215 47.2177 59.8129 47.2095 59.4326 47.0604C59.334 47.022 59.3174 47.1786 59.282 46.9745C59.1035 45.9279 58.843 45.9949 58.6804 44.647C58.4793 42.9889 58.1751 40.6403 58.4078 38.5809C58.6036 36.8505 58.5893 34.712 58.8009 32.8182C58.9552 31.4372 60.1992 30.2369 61.3091 29.3778C62.2661 28.6368 63.2314 27.6775 64.5266 27.7551C65.6997 27.8251 66.6372 28.7121 67.833 28.6549C68.4783 28.624 69.0016 28.1564 69.4655 27.792C69.7463 27.5713 69.9571 27.3168 70.1477 27.0977C70.3382 26.8786 70.3562 26.7784 70.2162 26.5691C69.6703 25.7551 69.0174 25.0029 68.4805 24.1911C68.3367 23.9743 68.2848 23.7725 68.1936 23.5383C68.1831 23.5119 68.1808 23.469 68.1733 23.4434C68.0739 23.0654 68.0521 22.6957 67.9851 22.3094C67.9181 21.9239 67.9391 21.5496 67.6681 21.2183C67.3977 20.887 67.2931 20.5376 66.842 20.3087C65.336 19.5452 64.4671 18.6092 62.5138 19.3629C59.1826 20.6483 55.4109 22.643 52.0405 24.2122C46.0768 26.6557 41.845 24.5684 36.0176 25.4908C35.3588 25.5955 35.2993 25.7514 34.6713 25.8447C32.7226 26.1346 30.7015 25.2401 28.6835 25.1971C26.4102 25.1482 24.1106 23.2702 21.8396 23.0714C21.8065 23.0684 21.7432 23.0323 21.7199 23.0647C21.6973 23.097 21.7048 23.152 21.7251 23.1806C22.6942 24.5488 23.262 25.0985 24.9637 25.728C26.1452 26.1647 30.7482 28.0382 32.2263 28.1301C33.0328 28.1805 31.5336 32.7625 31.2196 34.3242C30.825 36.2865 30.3973 37.9604 29.4486 39.7119C29.0254 40.4927 28.1963 41.1373 27.7076 41.8685C27.356 42.3948 27.1308 42.7608 26.9471 43.3752C26.478 44.9399 26.1753 46.7878 25.661 48.3058C25.5104 48.7508 25.914 49.0234 25.9562 49.1883C25.9803 49.281 26.039 49.3578 26.1121 49.4225H29.6007C29.6127 49.3427 29.6059 49.2569 29.6195 49.1642L29.621 49.1657ZM57.6699 48.2494C57.4304 48.1906 57.1684 48.1213 56.9402 48.0498C56.8544 48.0227 56.822 47.9647 56.8145 47.8985C56.6902 46.7803 56.6096 45.6734 56.5298 44.5559C56.9108 45.7871 57.2934 47.0175 57.6699 48.2494Z" fill="white"></path><path d="M6.39915 49.3456C6.55653 49.3433 6.66496 49.3749 6.7523 49.4246H12.5021C13.0104 49.4043 13.5209 49.4111 14.0269 49.3478C14.8906 49.1731 18.0487 49.027 17.8393 47.7936C17.7286 47.3253 17.2219 47.0263 16.7528 47.0956C16.3092 41.9135 18.1353 41.8751 19.1796 37.9045C19.7602 35.4197 19.6247 32.8444 19.2595 30.3384C19.2851 29.7504 19.2662 28.8272 18.9786 27.7519C18.6209 26.4146 17.9756 25.3258 17.8009 25.3822C17.6985 25.4154 17.8612 25.816 17.6044 26.3175C17.5268 26.4688 17.4658 26.5223 17.2648 26.8604C17.1496 27.0539 17.0622 27.2158 17.0073 27.3219C16.301 26.9733 15.4448 27.0027 14.746 27.3566C12.3342 24.8792 13.027 26.5998 13.3063 28.7014C12.3568 29.672 12.4863 31.5432 13.4599 32.4566C13.402 32.7066 13.1444 32.8143 12.9336 32.9092C11.9095 33.3549 10.905 33.8459 9.90206 34.3384C7.10847 35.4543 5.47222 38.4316 5.42779 41.3623C5.32464 43.2342 5.60625 45.1363 6.28696 46.8848C6.21316 47.0708 6.06181 47.2357 5.84947 47.2424C1.93919 46.5151 2.59203 42.8706 3.94215 40.1048C4.84197 38.1079 6.10021 36.0921 6.24027 33.8677C6.22295 31.8587 4.43084 29.0041 2.15605 29.6939C1.73137 29.9552 1.66812 30.6261 2.01299 30.9777C4.45794 32.3256 4.26819 34.5959 3.00166 36.7532C1.86389 39.2584 0.252496 41.674 0.00777387 44.4782C-0.160896 47.2281 2.4437 49.2499 5.04226 49.4246H5.84721C6.0332 49.4088 6.21693 49.3825 6.3984 49.3456H6.39915Z" fill="white"></path><path d="M201.924 44.0891C202.455 44.4889 203.329 45.2329 203.588 45.9091C203.674 46.08 203.686 46.6365 203.803 46.8405C203.817 46.8548 203.833 46.8676 203.839 46.8691C203.857 46.8691 203.832 47.0273 203.823 47.0386C203.809 47.1214 203.857 47.0965 203.79 47.2185C203.713 47.3797 203.655 47.6086 203.676 47.6703C203.683 47.6922 203.68 47.6997 203.629 47.7659C203.501 47.9196 203.541 47.9828 203.509 48.1259C203.5 48.1944 203.392 48.2945 203.411 48.3442C203.413 48.3766 203.407 48.3894 203.354 48.4715C203.306 48.5363 203.25 48.6726 203.207 48.7049C203.067 48.6296 202.757 48.586 202.649 48.6357C202.546 48.6741 202.433 48.793 202.453 48.842C202.441 48.8608 202.671 48.8525 202.714 48.8548C202.637 48.8811 202.584 48.909 202.499 48.8985C202.329 48.8947 202.107 48.9135 201.958 48.9971C201.863 48.9572 201.652 48.9369 201.558 48.9745C201.514 48.9918 201.504 48.9926 201.473 48.9843C201.318 48.9497 201.125 48.9948 201.012 49.1108C200.969 49.1522 200.959 49.1778 200.979 49.1944C200.991 49.2034 201.208 49.2478 201.381 49.2757C201.515 49.3028 201.59 49.36 201.698 49.4015H203.644C203.671 49.3683 203.697 49.3329 203.72 49.2908C203.944 48.8932 203.957 49.2237 204.25 49.2057C204.303 49.2576 204.366 49.3382 204.421 49.4015H204.541C204.613 49.2765 204.58 49.0317 204.466 48.9399C204.344 48.848 204.197 48.7132 204.096 48.592C203.899 48.2275 204.64 46.9595 204.778 46.6199C204.812 46.5476 204.771 46.4633 204.834 46.4083C205.003 46.1952 205.029 45.8676 205.008 45.5853C205.005 45.4904 204.981 45.4836 205.068 45.5265C205.327 45.6598 205.483 45.8428 205.738 46.3134C205.875 46.5664 206.014 46.7697 206.264 46.6892C206.334 46.8059 206.385 46.9045 206.444 47.0762C206.498 47.2268 206.505 47.2411 206.54 47.281C206.605 47.3541 206.763 47.8224 206.826 48.1289C206.836 48.2795 206.93 48.2524 206.917 48.3495C206.649 48.3661 206.113 48.3156 206.161 48.7132C206.094 48.7177 206.009 48.7192 205.975 48.7659C205.82 48.72 205.609 48.6537 205.471 48.6966C205.443 48.7117 205.442 48.7117 205.414 48.6982C205.169 48.546 204.668 48.8088 204.776 49.0332C204.82 49.089 205.188 48.9143 205.247 49.0054C205.213 49.1545 206.088 49.156 206.478 49.1417C206.427 49.2185 206.426 49.3171 206.45 49.3999H206.737C206.741 49.3932 206.745 49.3886 206.747 49.3871C206.794 49.3969 206.842 49.3992 206.89 49.3999H206.936C207.104 49.3909 207.271 49.3262 207.393 49.1944C207.529 49.0995 207.613 48.7953 207.676 48.6379C207.732 48.5724 207.85 48.6334 207.942 48.6334C208.048 48.6462 208.042 48.6387 208.106 48.6101C208.179 48.6409 208.363 48.7305 208.389 48.6982C208.461 48.6741 208.471 48.5957 208.414 48.482C208.359 48.3691 208.241 48.275 208.14 48.2614C208.103 48.2569 208.1 48.2546 208.1 48.2336C208.1 48.2049 208.066 48.1756 208.012 48.1568C207.829 48.0912 207.759 48.0513 207.612 47.9293C207.234 47.5476 207.22 46.8759 207.11 46.3368C207.082 46.1214 207.004 45.8895 206.931 45.8082C206.903 45.7773 206.903 45.7765 206.903 45.696C206.903 45.6154 206.877 45.4324 206.851 45.3255C206.844 45.2818 206.829 45.2698 206.869 45.2705C206.972 45.2758 207.152 45.1568 207.271 45.1493C207.474 45.1259 207.649 45.0303 207.741 44.8933C207.778 44.8391 207.78 44.8368 207.837 44.8187C208.066 44.7412 208.283 44.5604 208.389 44.3232C208.565 44.2954 208.762 44.1591 208.862 44.001C208.89 43.9543 208.893 43.952 208.923 43.952C209.365 43.9234 209.693 43.4528 209.43 43.0432C209.688 42.7743 209.646 42.3963 209.363 42.1855C209.644 42.0695 210.103 41.757 210.237 41.4604C210.274 41.3881 210.279 41.3821 210.329 41.3512C210.534 41.2217 210.707 40.9318 210.682 40.6757C210.844 40.5372 210.845 40.3105 210.773 40.0974C211.09 39.989 211.008 39.5613 210.825 39.3407C211.346 38.9695 211.76 38.3294 211.873 37.7044C211.917 37.3362 211.877 36.9582 211.47 36.9379C211.526 36.7315 211.463 36.3995 211.224 36.3814C211.187 36.3814 211.185 36.3791 211.169 36.3498C211.148 36.3099 211.088 36.2579 211.027 36.2263C210.856 36.1367 210.733 36.3174 210.769 36.1645C210.766 36.0154 210.864 35.6179 210.715 35.5509C210.507 35.5719 210.295 35.9469 210.238 36.1344C210.21 36.1359 210.095 36.142 210.087 36.1397C210.163 36.0109 210.193 35.9944 210.488 35.6442C210.561 35.5456 210.639 35.5102 210.606 35.4221C210.69 35.3603 210.785 35.3234 210.766 35.1736C210.737 34.9703 210.482 34.9078 210.301 34.904C210.107 34.8988 209.835 35.035 209.693 35.1766C209.572 35.1209 209.414 35.218 209.304 35.3799C209.274 35.4266 209.261 35.4387 209.215 35.4635C208.99 35.5795 208.796 35.8611 208.754 36.1164C208.719 36.2075 208.594 36.2828 208.535 36.3874C208.361 36.6397 208.25 37.0154 208.246 37.3242C208.076 37.6683 207.937 37.9732 207.893 38.3091L207.875 38.4356C207.777 38.5576 207.682 38.7134 207.634 38.8505C207.518 39.0161 207.303 39.0335 207.01 39.0877C206.506 39.1539 205.794 38.9966 205.135 38.8588C204.701 38.7714 204.527 38.733 204.134 38.6359C203.878 38.5726 203.859 38.5658 203.845 38.535C203.814 38.4589 203.699 38.3716 203.521 38.2865C203.187 38.1269 203.199 38.1336 203.194 38.0997C202.983 37.6269 202.447 36.9951 202.47 36.471C202.68 36.416 202.817 36.1653 202.878 35.9537C202.918 35.9537 203.007 35.9319 203.04 35.9552C203.421 36.2278 203.434 35.8837 203.166 35.4018C203.134 35.3453 203.085 35.2647 203.099 35.1954C203.122 35.0908 202.921 34.7625 202.916 34.6789C202.88 34.6028 202.953 34.383 202.96 34.2783C202.991 34.1247 203.262 34.0027 203.46 33.9138C203.656 33.8408 203.885 33.6638 203.631 33.5524C203.671 33.4635 203.584 33.3792 203.491 33.377C203.435 33.377 203.314 33.4229 203.255 33.4673C203.2 33.505 203.17 33.4056 203 33.4839C202.934 33.4033 202.819 33.4041 202.751 33.4869C202.727 33.514 202.717 33.52 202.704 33.5148C202.653 33.4944 202.584 33.517 202.546 33.5667C202.51 33.6029 202.448 33.5916 202.421 33.6428C202.408 33.6631 202.397 33.6699 202.379 33.6699C202.354 33.6593 202.284 33.7527 202.26 33.7512C202.236 33.7512 202.182 33.8039 202.165 33.8446C202.151 33.8784 202.148 33.8807 202.107 33.889C201.89 33.9297 201.93 34.0697 201.793 34.0343C201.532 34.0034 201.522 34.1089 201.361 34.1902C201.284 34.2075 201.205 34.2911 201.189 34.3724C201.186 34.3935 201.18 34.4025 201.169 34.4025C201.02 34.4327 200.79 34.6646 200.811 34.8295C200.811 34.8769 200.809 34.8814 200.781 34.9078C200.674 35.0102 200.449 35.4432 200.376 35.6856C200.317 35.831 200.309 36.0953 200.225 36.16C200.15 36.2022 200.135 36.3505 200.079 36.3739C199.869 36.4394 199.697 36.6947 199.826 36.8972C199.69 37.0139 199.732 37.2112 199.859 37.3166C199.729 37.538 199.688 37.9883 199.589 38.2541C199.361 38.8949 198.982 39.4943 198.982 40.0267C198.9 41.0387 199.328 42.0997 200.042 42.818C200.612 43.3278 201.305 43.6373 201.921 44.0876L201.924 44.0891Z" fill="white"></path><path d="M69.1806 33.7195C69.2295 33.9966 69.3334 34.2729 69.487 34.5387C69.5842 34.7059 69.6926 34.8497 69.8108 34.9762C70.045 35.3113 70.3319 35.5756 70.6519 35.8068C70.3756 36.547 70.2777 37.6403 70.3688 37.9046C71.0691 39.952 70.4938 39.693 70.7618 40.8375C71.0299 41.9821 71.4772 42.662 71.173 43.3412C70.8688 44.0204 70.3146 44.2712 70.2069 44.7004C70.1 45.1296 70.0638 45.7734 70.2069 46.4172C70.35 47.061 70.4396 46.863 70.368 47.3283C70.2965 47.7929 70.1715 48.6476 70.368 48.7545C70.5646 48.8622 70.5932 48.613 70.6542 48.8441C70.6896 48.9767 70.737 49.25 70.9087 49.4232H71.9358C71.932 49.3938 71.9237 49.3712 71.9237 49.3712C71.9237 49.3712 71.9704 49.3998 72.0577 49.4232H72.4546C72.5743 49.3622 72.5186 49.2093 72.3981 49.0316C72.246 48.808 72.121 48.5843 72.0675 48.2176C72.0148 47.8569 72.1684 47.1552 72.0969 46.7237C72.1895 46.4632 72.5622 45.9933 73.0065 45.5227C73.4538 45.049 74.6699 43.7253 74.6699 43.7253C74.6699 43.7253 74.3837 44.9858 74.5983 45.3615C74.8129 45.7373 75.215 46.2109 75.4387 46.6491C75.6623 47.0874 75.7248 47.2576 76.02 47.6145C76.3151 47.9722 76.413 48.3615 76.5117 48.5761C76.6103 48.7907 76.6103 49.0143 76.7624 49.1483C76.9145 49.2824 76.9326 49.1574 77.0034 49.0678C77.0749 48.9782 77.2632 48.9601 77.3882 49.0678C77.4906 49.1559 77.6577 49.3027 77.7842 49.4224H78.849C78.849 49.4224 78.8474 49.4187 78.8459 49.4164C78.8459 49.4164 79.0244 49.4345 79.2217 49.4074C79.4182 49.3803 79.3911 49.2108 79.1411 49.0226C78.8904 48.8351 78.4792 48.5218 78.1931 48.2628C77.907 48.0038 77.6743 46.997 77.3083 46.4699C76.9416 45.9421 76.7986 45.5219 76.977 44.9948C77.1562 44.467 77.3528 43.7607 77.4958 42.8759C77.6389 41.9904 77.6389 41.8119 77.6389 41.8119C77.6389 41.8119 78.8994 42.3932 79.9905 42.7772C81.0816 43.162 83.0484 43.4745 83.9331 43.4572C84.8187 43.4391 85.7486 43.019 86.3299 43.5641C86.9112 44.1093 86.7945 44.2433 87.0091 45.1198C87.2237 45.9963 87.671 46.3035 87.814 46.6883C87.9571 47.0731 88.0023 46.8984 88.0023 47.3276C88.0023 47.7568 88.0558 47.9714 88.0829 48.3562C88.1092 48.741 88.1363 48.8923 88.1815 49.134C88.2026 49.2485 88.2064 49.3532 88.2222 49.4232H88.4541C88.5904 49.3125 88.6905 49.1521 88.6905 49.1521C88.6905 49.1521 88.7237 49.2899 88.7831 49.4232H90.4691C90.6137 49.3125 90.7198 49.1393 90.7198 49.1393C90.7198 49.1393 90.7552 49.2854 90.8185 49.4232H92.3418C92.3967 49.3419 92.2733 49.1355 92.1415 48.9428C91.9894 48.7191 91.9005 47.3193 91.7213 46.729C91.5421 46.1386 91.515 46.6138 91.5782 46.3013C91.6407 45.988 91.8644 45.4338 91.9894 44.6025C92.1144 43.7712 92.1686 43.2614 92.3019 42.9926C92.3087 42.9798 92.3192 42.9685 92.3275 42.9565C92.515 42.8397 92.6799 42.6922 92.8388 42.4738C93.1964 41.9821 93.9027 41.7231 94.5556 41.4723C95.2084 41.2216 95.7716 40.9896 95.9953 40.9271C96.2189 40.8646 96.9072 40.757 97.3635 40.7931C97.819 40.8292 98.4628 40.9008 99.1247 40.7487C99.7866 40.5966 100.001 40.4716 100.189 40.3729C100.376 40.2743 100.439 40.2389 100.439 40.2389C100.439 40.2389 100.778 40.2299 100.921 40.0333C100.921 40.0333 101.055 40.15 101.305 39.9889C101.556 39.8278 101.726 39.5687 101.815 38.9784C101.905 38.388 101.949 37.9054 101.574 38.0755L101.198 38.2457C101.198 38.2457 100.823 37.995 100.403 37.7269C99.9824 37.4588 99.508 37.0831 99.1503 36.5823C98.7926 36.0816 98.56 35.5718 98.2656 35.3128C97.9704 35.0538 97.9704 35.0892 97.926 34.9905C97.8808 34.8919 97.7204 34.5078 97.7204 34.5078C97.7204 34.5078 98.185 34.2036 98.3371 33.6314C98.4892 33.0591 98.3732 32.7195 98.2746 32.1826C98.1767 31.6465 98.1677 31.2707 97.944 31.3242C97.7204 31.3776 97.5058 31.968 97.0856 32.4153C96.6654 32.8625 96.3522 33.05 96.3522 33.05C96.3522 33.05 95.9945 32.8083 95.5917 32.8354C95.5917 32.8354 95.1715 32.3611 94.7513 31.9861C94.3312 31.6103 94.2958 31.0471 94.1075 31.0742C93.92 31.1013 93.2672 32.1201 93.0978 32.7104C93.0978 32.7104 91.4261 32.8806 90.576 32.8897C89.7266 32.8987 88.43 32.8806 87.223 32.8272C86.0159 32.7737 84.4151 32.8626 82.6275 32.7556C80.8391 32.6487 78.9792 32.4514 77.8166 32.416C76.654 32.3806 75.1073 32.291 73.9003 32.9258C72.8348 33.4868 72.6609 33.3512 71.4651 34.678C71.054 34.5696 70.6775 34.3783 70.3432 34.044C70.5036 34.0304 70.664 33.9943 70.8213 33.9311C71.9531 33.4755 71.7716 31.7843 70.4712 31.7654C69.8869 31.7572 69.5111 32.1073 69.3221 32.5742C69.2657 32.6954 69.2242 32.8196 69.1956 32.9454C69.0443 32.7857 68.9208 32.6028 68.8372 32.419C68.7431 32.2135 68.3877 32.2406 68.42 32.5004C68.4841 33.0079 68.7792 33.4416 69.1806 33.7202V33.7195ZM89.5482 47.2131C89.5836 47.0377 89.6694 46.7832 89.7598 46.4504C89.7929 46.5415 89.8223 46.619 89.8434 46.677C89.9864 47.0618 90.0309 47.1868 90.0309 47.616C90.0309 48.0452 90.0843 48.2598 90.1114 48.6438C90.1378 49.0143 90.1634 48.8938 90.2055 49.1001C90.1762 49.0527 90.1446 49.0038 90.1114 48.9556C89.9593 48.7319 89.8705 48.2312 89.6913 47.6408C89.5128 47.0505 89.4857 47.5256 89.5482 47.2131ZM70.7272 32.5576C70.9802 32.7526 71.0691 33.1321 70.5593 33.3445C70.3582 33.4288 70.1579 33.4393 69.9667 33.4009C69.9418 33.2978 69.9313 33.1909 69.9403 33.0802C69.9795 32.6321 70.3725 32.4243 70.7265 32.5568L70.7272 32.5576Z" fill="white"></path><path d="M174.462 85.0088H172.983L172.724 86.8137H174.266C174.815 86.8137 175.23 86.4794 175.297 85.9824C175.337 85.7091 175.272 85.4606 175.118 85.2821C174.965 85.1059 174.732 85.0088 174.462 85.0088Z" fill="white"></path><path d="M168.78 85.0078H167.26L166.99 86.9069H168.559C169.141 86.9069 169.583 86.5545 169.659 86.0311C169.698 85.7442 169.629 85.4822 169.465 85.2939C169.303 85.1095 169.06 85.0078 168.78 85.0078Z" fill="white"></path><path d="M101.333 85.0088H99.8545L99.5947 86.8137H101.137C101.687 86.8145 102.101 86.4801 102.168 85.9832C102.208 85.7091 102.144 85.4606 101.989 85.2821C101.836 85.1059 101.603 85.0088 101.333 85.0088Z" fill="white"></path><path d="M153.324 85.0088H151.846L151.586 86.8137H153.128C153.678 86.8145 154.092 86.4801 154.16 85.9832C154.199 85.7091 154.135 85.4606 153.98 85.2821C153.828 85.1059 153.594 85.0088 153.324 85.0088Z" fill="white"></path><path d="M145.657 87.6828H147.475L146.889 85.4072L145.657 87.6828Z" fill="white"></path><path d="M180.373 84.9229C179.259 84.9229 178.299 85.7647 178.14 86.8799C178.047 87.5169 178.199 88.1012 178.566 88.5252C178.933 88.9491 179.49 89.1825 180.134 89.1825C181.249 89.1825 182.209 88.3414 182.368 87.2255H182.369C182.46 86.5885 182.309 86.0042 181.942 85.5802C181.575 85.1563 181.018 84.9229 180.373 84.9229Z" fill="white"></path><path d="M96.0807 79.5889L90.373 89.4207V94.5163H212V79.5889H96.0807ZM103.293 86.0963C103.172 86.9615 102.509 87.612 101.608 87.7784L103.016 90.1564H101.717L100.361 87.8214H99.4549L99.1303 90.1564H98.0174L98.8894 83.9502H101.367C101.992 83.9502 102.534 84.1769 102.891 84.5895C103.233 84.9856 103.376 85.521 103.293 86.0963ZM108.571 85.0089H105.587L105.377 86.5066H108.089L107.929 87.5654H105.22L105.01 89.0977H108.036L107.888 90.1564H103.749L104.622 83.9502H108.718L108.571 85.0089ZM113.622 85.7258L113.6 85.8613H112.482L112.507 85.6761C112.532 85.4946 112.483 85.3267 112.365 85.1919C112.187 84.9886 111.869 84.8719 111.492 84.8719C111.033 84.8719 110.537 85.1076 110.477 85.5571C110.398 86.0661 110.851 86.2484 111.598 86.5021C112.466 86.7973 113.546 87.1648 113.358 88.5322C113.218 89.548 112.275 90.2581 111.066 90.2581C110.278 90.2581 109.601 89.9938 109.205 89.5337C108.909 89.1881 108.79 88.7634 108.86 88.3055L108.881 88.167H110.013L109.983 88.3552C109.954 88.5465 110.004 88.7242 110.13 88.871C110.328 89.1015 110.681 89.234 111.101 89.234C111.686 89.234 112.156 88.9238 112.217 88.4961C112.295 87.9757 111.832 87.7845 111.073 87.5149C110.214 87.2107 109.145 86.8319 109.336 85.4961C109.477 84.5406 110.398 83.8471 111.527 83.8471C112.282 83.8478 112.93 84.1023 113.305 84.5458C113.586 84.8779 113.696 85.286 113.622 85.7258ZM115.844 88.5247C116.21 88.9494 116.768 89.1828 117.412 89.1828C118.292 89.1828 119.027 88.6843 119.331 87.8816L119.371 87.7762H120.531L120.466 87.9878C120.037 89.3673 118.822 90.2581 117.37 90.2581C116.381 90.2581 115.522 89.8974 114.954 89.243C114.395 88.6 114.161 87.7235 114.294 86.7755C114.524 85.1061 116.051 83.8471 117.694 83.8471C119.337 83.8471 120.553 84.7717 120.719 86.1475L120.741 86.3297H119.6L119.572 86.2024C119.398 85.4253 118.643 84.9231 117.651 84.9231C116.536 84.9231 115.576 85.7642 115.417 86.8794C115.326 87.5164 115.477 88.1007 115.844 88.5247ZM126.453 87.9373C126.273 89.2822 125.144 90.2596 123.768 90.2596C122.979 90.2596 122.304 89.9825 121.868 89.4802C121.436 88.984 121.265 88.3168 121.374 87.551L121.897 83.951H123.002L122.472 87.6226C122.409 88.0842 122.505 88.4765 122.749 88.7558C122.993 89.0352 123.365 89.1835 123.827 89.1835C124.569 89.1835 125.258 88.5811 125.361 87.8402H125.362L125.902 83.951H127.007L126.453 87.9373ZM132.207 85.0089H129.224L129.013 86.5066H131.726L131.566 87.5654H128.858L128.647 89.0977H131.673L131.525 90.1564H127.386L128.259 83.9502H132.354L132.207 85.0089ZM133.912 89.5871C133.867 89.9395 133.549 90.2151 133.187 90.2151C132.964 90.2151 132.769 90.1316 132.638 89.9802C132.51 89.8326 132.458 89.6353 132.489 89.4237V89.4222C132.544 89.0668 132.859 88.7988 133.22 88.7988H133.221C133.436 88.7988 133.625 88.8778 133.752 89.0224C133.882 89.1685 133.938 89.3695 133.912 89.5871ZM140.282 90.2596C139.292 90.2596 138.434 89.8989 137.865 89.2445C137.305 88.6007 137.071 87.7242 137.205 86.7762C137.436 85.1076 138.962 83.8486 140.605 83.8486C142.248 83.8486 143.464 84.7732 143.631 86.149L143.652 86.3312H142.512L142.483 86.2039C142.309 85.4268 141.555 84.9246 140.562 84.9246C139.447 84.9246 138.487 85.7657 138.329 86.8809C138.237 87.5179 138.388 88.1022 138.755 88.5262C139.122 88.9501 139.679 89.1835 140.323 89.1835C141.204 89.1835 141.939 88.6851 142.242 87.8824L142.282 87.7769H143.443L143.378 87.9893C142.949 89.3688 141.734 90.2596 140.282 90.2596ZM148.113 90.1564L147.746 88.7333H145.097L144.321 90.1564H143.089L146.489 83.9502H147.64L149.295 90.1564H148.113ZM155.284 86.0963C155.163 86.9615 154.5 87.612 153.599 87.7784L155.007 90.1564H153.708L152.352 87.8214H151.446L151.121 90.1564H150.008L150.88 83.9502H153.358C153.983 83.9502 154.525 84.1769 154.882 84.5895C155.224 84.9856 155.367 85.521 155.284 86.0963ZM160.561 85.0089H157.577L157.367 86.5066H160.08L159.92 87.5654H157.211L157.001 89.0977H160.027L159.879 90.1564H155.74L156.613 83.9502H160.708L160.561 85.0089ZM162.266 89.5871C162.221 89.9395 161.903 90.2151 161.541 90.2151C161.318 90.2151 161.123 90.1316 160.992 89.9802C160.864 89.8326 160.811 89.6353 160.842 89.4237V89.4222C160.898 89.0668 161.213 88.7988 161.574 88.7988H161.575C161.79 88.7988 161.979 88.8778 162.106 89.0224C162.235 89.1685 162.292 89.3695 162.266 89.5871ZM170.783 86.155C170.624 87.222 169.71 87.9659 168.56 87.9659H166.843L166.536 90.1564H165.423L166.296 83.9502H168.815C169.45 83.9495 169.999 84.1806 170.365 84.6008C170.719 85.0082 170.868 85.5601 170.783 86.155ZM176.422 86.0963C176.301 86.9615 175.638 87.612 174.737 87.7784L176.145 90.1564H174.846L173.49 87.8214H172.584L172.259 90.1564H171.146L172.019 83.9502H174.496C175.121 83.9502 175.663 84.1769 176.02 84.5895C176.362 84.9856 176.505 85.521 176.422 86.0963ZM183.492 87.3319C183.251 88.9998 181.789 90.2581 180.092 90.2581C179.102 90.2581 178.245 89.8974 177.675 89.243C177.116 88.5992 176.882 87.7227 177.016 86.7747C177.248 85.1061 178.709 83.8471 180.416 83.8471H180.416C181.408 83.8471 182.269 84.2108 182.84 84.8711C183.397 85.5157 183.629 86.3899 183.492 87.3319ZM188.6 85.0089H186.827L186.103 90.1564H184.989L185.714 85.0089H183.941L184.089 83.9502H188.747L188.6 85.0089ZM193.633 85.0089H190.649L190.439 86.5066H193.152L192.992 87.5654H190.284L190.073 89.0977H193.099L192.951 90.1564H188.812L189.684 83.9502H193.78L193.633 85.0089ZM197.484 84.9238C196.369 84.9238 195.409 85.7649 195.251 86.8801C195.159 87.5172 195.31 88.1015 195.677 88.5254C196.044 88.9494 196.601 89.1828 197.246 89.1828C198.126 89.1828 198.861 88.6843 199.164 87.8816L199.204 87.7762H200.365L200.299 87.9878C199.871 89.3673 198.656 90.2581 197.203 90.2581C196.214 90.2581 195.356 89.8974 194.787 89.243C194.228 88.5992 193.993 87.7227 194.128 86.7747C194.359 85.1061 195.884 83.8471 197.527 83.8471C199.17 83.8471 200.386 84.7717 200.553 86.1475L200.575 86.3297H199.434L199.405 86.2024C199.231 85.4253 198.477 84.9231 197.484 84.9231V84.9238ZM202.958 90.1564H201.845L202.569 85.0089H200.797L200.944 83.9502H205.603L205.455 85.0089H203.682L202.958 90.1564ZM206.248 89.5879C206.203 89.9403 205.885 90.2159 205.523 90.2159C205.3 90.2159 205.105 90.1323 204.974 89.981C204.847 89.8334 204.794 89.6361 204.824 89.4245V89.4222C204.88 89.0668 205.195 88.7988 205.556 88.7988C205.771 88.7988 205.959 88.8778 206.087 89.0224H206.088C206.218 89.1692 206.274 89.3703 206.248 89.5879Z" fill="white"></path></svg>