<svg width="132" height="24" viewBox="0 0 132 24" fill="none" xmlns="http://www.w3.org/2000/svg">
<g id="Group">
<path id="Vector" d="M132 13.4565H59.7759L56.2197 19.7365V22.9913H132V13.4565Z" fill="#177042"/>
<g id="Group_2">
<path id="Vector_2" d="M3.50457 1.11938H5.98076L9.4994 10.6911H7.19915L6.631 9.01207H2.82805L2.2463 10.6911H0L3.50457 1.11938ZM5.94041 7.02952L4.72249 3.492L3.50457 7.02952H5.94041Z" fill="#272C68"/>
<path id="Vector_3" d="M10.3662 1.11938H12.9644L15.5893 6.05749L18.2283 1.11938H20.7992V10.6911H18.7021V4.30917L16.1715 9.08182H14.9808L12.4638 4.30917V10.6911H10.3662V1.11938Z" fill="#272C68"/>
<path id="Vector_4" d="M22.5737 1.11938H28.7712V3.14473H24.6713V4.8642H28.3246V6.88955H24.6713V8.66529H28.8393V10.6906H22.5737V1.1189V1.11938Z" fill="#272C68"/>
<path id="Vector_5" d="M30.1934 1.11938H34.4017C36.2558 1.11938 37.6496 2.49255 37.6496 4.3236C37.6496 5.66934 36.8778 6.73806 35.7143 7.19546L37.9339 10.6916H35.3357L33.3733 7.41767H32.2909V10.6916H30.1934V1.11987V1.11938ZM32.2909 3.14522V5.54525H34.3613C35.0111 5.54525 35.4981 5.03158 35.4981 4.35245C35.4981 3.67332 35.0111 3.1457 34.3613 3.1457H32.2909V3.14522Z" fill="#272C68"/>
<path id="Vector_6" d="M38.9761 1.11938H41.0737V10.6911H38.9761V1.11938Z" fill="#272C68"/>
<path id="Vector_7" d="M42.4004 5.90541C42.4004 3.08886 44.5252 0.952881 47.3396 0.952881C49.7483 0.952881 51.6699 2.53431 52.0893 4.76792H49.8566C49.5048 3.72711 48.5303 3.02008 47.3396 3.02008C45.7562 3.02008 44.5524 4.25473 44.5524 5.90589C44.5524 7.55706 45.7567 8.7917 47.3396 8.7917C48.5303 8.7917 49.5048 8.08372 49.8566 7.04387H52.0893C51.6699 9.277 49.7483 10.8589 47.3396 10.8589C44.5252 10.8589 42.4004 8.72196 42.4004 5.90637V5.90541Z" fill="#272C68"/>
<path id="Vector_8" d="M55.4597 1.11938H57.9359L61.4545 10.6911H59.1542L58.5861 9.01207H54.7836L54.2019 10.6911H51.9556L55.4601 1.11938H55.4597ZM57.8955 7.02952L56.6776 3.492L55.4597 7.02952H57.8955Z" fill="#272C68"/>
<path id="Vector_9" d="M62.3213 1.11938H64.4325L68.3161 6.97325V1.11938H70.4132V10.6911H68.2889L64.4189 4.83679V10.6911H62.3213V1.11938Z" fill="#272C68"/>
<path id="Vector_10" d="M75.1646 1.11938H77.2621V4.86469H81.0107V1.11938H83.1078V10.6911H81.0107V6.89004H77.2621V10.6911H75.1646V1.11938Z" fill="#272C68"/>
<path id="Vector_11" d="M84.7319 6.97325V1.11938H86.8295V6.94535C86.8295 8.00012 87.5872 8.79083 88.6292 8.79083C89.6712 8.79083 90.4293 7.99964 90.4293 6.94535V1.11938H92.5264V6.97325C92.5264 9.1934 90.8347 10.858 88.6292 10.858C86.4237 10.858 84.7319 9.19292 84.7319 6.97325Z" fill="#272C68"/>
<path id="Vector_12" d="M94.1387 1.11938H96.7368L99.3617 6.05749L102.001 1.11938H104.572V10.6911H102.475V4.30917L99.944 9.08182H98.7533L96.2362 4.30917V10.6911H94.1387V1.11938Z" fill="#272C68"/>
<path id="Vector_13" d="M108.93 1.11938H111.407L114.925 10.6911H112.625L112.057 9.01207H108.254L107.673 10.6911H105.426L108.931 1.11938H108.93ZM111.366 7.02952L110.148 3.492L108.93 7.02952H111.366Z" fill="#272C68"/>
<path id="Vector_14" d="M115.792 1.11938H117.903L121.787 6.97325V1.11938H123.884V10.6911H121.76L117.89 4.83679V10.6911H115.792V1.11938Z" fill="#272C68"/>
<path id="Vector_15" d="M125.657 1.11938H131.855V3.14473H127.755V4.8642H131.408V6.88955H127.755V8.66529H131.923V10.6906H125.657V1.1189V1.11938Z" fill="#272C68"/>
<path id="Vector_16" d="M0.446777 20.1527H2.59831C2.59831 20.777 3.23401 21.2767 4.03251 21.2767C4.74985 21.2767 5.3452 20.8886 5.3452 20.3475C5.3452 18.8493 0.595499 19.501 0.595499 16.2549C0.595499 14.4518 2.07051 13.2864 3.95135 13.2864C5.83218 13.2864 7.36162 14.535 7.36162 16.1996H5.21008C5.21008 15.6306 4.65508 15.2011 3.93821 15.2011C3.2889 15.2011 2.7475 15.5339 2.7475 16.075C2.7475 17.5872 7.4972 16.7686 7.4972 20.0978C7.4972 21.9703 5.96777 23.1919 4.00624 23.1919C2.04471 23.1919 0.447247 21.8596 0.447247 20.1532L0.446777 20.1527Z" fill="#272C68"/>
<path id="Vector_17" d="M8.3501 18.2384C8.3501 15.4219 10.4749 13.2859 13.2893 13.2859C16.1038 13.2859 18.2286 15.4223 18.2286 18.2384C18.2286 21.0545 16.1043 23.1909 13.2893 23.1909C10.4744 23.1909 8.3501 21.054 8.3501 18.2384ZM16.077 18.2384C16.077 16.5873 14.8723 15.3526 13.2893 15.3526C11.7064 15.3526 10.5021 16.5873 10.5021 18.2384C10.5021 19.8896 11.7064 21.1242 13.2893 21.1242C14.8723 21.1242 16.077 19.8891 16.077 18.2384Z" fill="#272C68"/>
<path id="Vector_18" d="M19.0957 18.2384C19.0957 15.4219 21.2205 13.2859 24.0349 13.2859C26.4436 13.2859 28.3652 14.8673 28.7846 17.1009H26.5519C26.2001 16.0601 25.2257 15.3531 24.0349 15.3531C22.4516 15.3531 21.2477 16.5877 21.2477 18.2389C21.2477 19.8901 22.452 21.1247 24.0349 21.1247C25.2257 21.1247 26.2001 20.4167 26.5519 19.3769H28.7846C28.3652 21.61 26.4436 23.1919 24.0349 23.1919C21.2205 23.1919 19.0957 21.055 19.0957 18.2394V18.2384Z" fill="#272C68"/>
<path id="Vector_19" d="M30.0439 13.4526H32.1415V23.0244H30.0439V13.4526Z" fill="#272C68"/>
<path id="Vector_20" d="M33.9277 13.4529H40.1252V15.4782H36.0253V17.1977H39.6786V19.2231H36.0253V20.9988H40.1933V23.0241H33.9277V13.4524V13.4529Z" fill="#272C68"/>
<path id="Vector_21" d="M43.4953 15.478H41.0459V13.4526H48.0419V15.478H45.5925V23.0244H43.4949V15.478H43.4953Z" fill="#272C68"/>
<path id="Vector_22" d="M52.0483 19.7367L48.5029 13.4524H50.898L53.1311 17.5166L55.3502 13.4524H57.7049L54.1464 19.7367V23.0246H52.0488V19.7367H52.0483Z" fill="#272C68"/>
</g>
<path id="Vector_23" d="M63.0692 16.2424H61.5257L60.9824 20.2066H61.6758L61.878 18.7151H62.4429L63.2874 20.2066H64.0971L63.2193 18.6877C63.7809 18.5814 64.1942 18.1658 64.2693 17.6132C64.3214 17.2457 64.2322 16.9038 64.0188 16.6508C63.7964 16.3872 63.4591 16.2419 63.0697 16.2419H63.0692V16.2424ZM62.9261 18.0715H61.9653L62.1272 16.9187H63.0481C63.2165 16.9187 63.362 16.9807 63.4572 17.0933C63.5534 17.2072 63.5933 17.366 63.5689 17.541C63.5266 17.8585 63.2686 18.072 62.9261 18.072V18.0715Z" fill="white"/>
<path id="Vector_24" d="M64.5537 20.2066H67.1326L67.2246 19.5303H65.3395L65.4704 18.5516H67.158L67.2579 17.8753H65.568L65.6989 16.9187H67.5577L67.6497 16.2424H65.0975L64.5537 20.2066Z" fill="white"/>
<path id="Vector_25" d="M69.3995 16.1765C68.6962 16.1765 68.1224 16.6195 68.0347 17.2298C67.9155 18.0831 68.5813 18.325 69.1166 18.5193C69.5899 18.6915 69.878 18.8137 69.8297 19.146C69.7917 19.4192 69.4989 19.6174 69.1339 19.6174C68.8726 19.6174 68.6526 19.5327 68.5292 19.3855C68.4508 19.2917 68.4194 19.1782 68.4377 19.0561L68.456 18.9358H67.7509L67.7377 19.0243C67.6941 19.3168 67.7687 19.588 67.9531 19.8088C68.1994 20.1027 68.6216 20.2715 69.1123 20.2715C69.8658 20.2715 70.4532 19.8179 70.5404 19.1691C70.6573 18.2957 69.9845 18.0609 69.444 17.8724C68.9786 17.7103 68.6962 17.5939 68.7455 17.2688C68.783 16.9817 69.0917 16.8311 69.3779 16.8311C69.6129 16.8311 69.8109 16.9057 69.9216 17.0355C69.9953 17.1216 70.0258 17.2289 70.0103 17.3448L69.9948 17.4631H70.691L70.7051 17.3765C70.7511 17.0956 70.6826 16.835 70.5076 16.6229C70.2735 16.3396 69.87 16.177 69.3995 16.177V16.1765Z" fill="white"/>
<path id="Vector_26" d="M73.2153 16.8638C73.8336 16.8638 74.3037 17.1846 74.4121 17.681L74.4299 17.7623H75.1407L75.1271 17.6459C75.0234 16.7671 74.2657 16.1765 73.2421 16.1765C72.2184 16.1765 71.2674 16.9807 71.1238 18.047C71.0408 18.6525 71.1867 19.2124 71.5348 19.6231C71.889 20.0411 72.4238 20.2715 73.0403 20.2715C73.9448 20.2715 74.7021 19.7025 74.969 18.8214L75.0098 18.6862H74.2869L74.262 18.7535C74.0729 19.2663 73.615 19.5847 73.0666 19.5847C72.665 19.5847 72.3178 19.4356 72.0893 19.1643C71.8609 18.8935 71.7666 18.5203 71.8238 18.1134C71.9223 17.4011 72.5205 16.8638 73.2153 16.8638Z" fill="white"/>
<path id="Vector_27" d="M78.019 18.7271C77.9548 19.2004 77.5255 19.5852 77.0629 19.5852C76.7753 19.5852 76.5431 19.4904 76.3911 19.312C76.2391 19.1335 76.1795 18.883 76.2189 18.5881L76.5487 16.2429H75.8605L75.5344 18.5424C75.4668 19.0316 75.5733 19.4577 75.8422 19.7747C76.1143 20.0955 76.5346 20.2725 77.0263 20.2725C77.8835 20.2725 78.5867 19.6482 78.6988 18.7892L79.0441 16.2429H78.3559L78.0195 18.7276H78.019V18.7271Z" fill="white"/>
<path id="Vector_28" d="M79.2808 20.2066H81.8592L81.9517 19.5303H80.0661L80.1975 18.5516H81.885L81.985 17.8753H80.2946L80.4255 16.9187H82.2843L82.3762 16.2424H79.8245L79.2808 20.2066Z" fill="white"/>
<path id="Vector_29" d="M82.9155 19.3394C82.6903 19.3394 82.4942 19.5106 82.4595 19.7376V19.7386C82.4402 19.8737 82.4731 19.9997 82.5528 20.094C82.6345 20.1907 82.756 20.2441 82.8948 20.2441C83.12 20.2441 83.3185 20.068 83.3462 19.8429C83.3626 19.7039 83.3274 19.5755 83.2467 19.4822C83.1674 19.3899 83.0497 19.3394 82.9159 19.3394H82.9155Z" fill="white"/>
<path id="Vector_30" d="M89.2844 18.6867H88.5615L88.5366 18.754C88.3475 19.2667 87.8897 19.5851 87.3412 19.5851C86.9396 19.5851 86.5924 19.4361 86.364 19.1653C86.1355 18.8945 86.0412 18.5212 86.0984 18.1144C86.197 17.402 86.7951 16.8648 87.4899 16.8648C88.1083 16.8648 88.5784 17.1856 88.6867 17.682L88.7046 17.7632H89.4153L89.4017 17.6468C89.298 16.7681 88.5404 16.1775 87.5167 16.1775C86.493 16.1775 85.5425 16.9817 85.3985 18.0475C85.3149 18.653 85.4608 19.2129 85.8094 19.6241C86.1641 20.0421 86.6985 20.2725 87.3154 20.2725C88.2199 20.2725 88.9771 19.7035 89.2441 18.8223L89.2849 18.6872L89.2844 18.6867Z" fill="white"/>
<path id="Vector_31" d="M91.1827 16.2424L89.0645 20.2066H89.832L90.3157 19.2975H91.9662L92.1946 20.2066H92.9312L91.9 16.2424H91.1827ZM91.7973 18.6266H90.6647L91.4323 17.1731L91.7973 18.6266Z" fill="white"/>
<path id="Vector_32" d="M95.4623 16.2424H93.9188L93.3755 20.2066H94.0689L94.2711 18.7151H94.836L95.6804 20.2066H96.4902L95.6124 18.6877C96.174 18.5814 96.5873 18.1658 96.6624 17.6132C96.7144 17.2457 96.6253 16.9038 96.4118 16.6508C96.1895 16.3872 95.8521 16.2419 95.4627 16.2419L95.4623 16.2424ZM95.3192 18.0715H94.3584L94.5202 16.9187H95.4412C95.6096 16.9187 95.755 16.9807 95.8503 17.0933C95.9464 17.2072 95.9863 17.366 95.9619 17.541C95.9197 17.8585 95.6617 18.072 95.3192 18.072V18.0715Z" fill="white"/>
<path id="Vector_33" d="M96.9468 20.2066H99.5252L99.6177 19.5303H97.7321L97.8635 18.5516H99.551L99.651 17.8753H97.9606L98.0915 16.9187H99.9503L100.042 16.2424H97.4905L96.9468 20.2066Z" fill="white"/>
<path id="Vector_34" d="M100.581 19.3394C100.356 19.3394 100.16 19.5106 100.125 19.7376V19.7386C100.106 19.8737 100.139 19.9997 100.219 20.094C100.3 20.1907 100.422 20.2441 100.561 20.2441C100.786 20.2441 100.984 20.068 101.012 19.8429C101.029 19.7039 100.993 19.5755 100.913 19.4822C100.833 19.3899 100.716 19.3394 100.582 19.3394H100.581Z" fill="white"/>
<path id="Vector_35" d="M105.093 16.2424H103.523L102.979 20.2066H103.673L103.864 18.8074H104.934C105.651 18.8074 106.22 18.3322 106.319 17.6507C106.372 17.2707 106.279 16.9182 106.059 16.658C105.831 16.3896 105.489 16.2419 105.093 16.2419V16.2424ZM104.934 18.1312H103.956L104.124 16.9182H105.071C105.246 16.9182 105.398 16.9831 105.498 17.101C105.6 17.2212 105.643 17.3886 105.619 17.5718C105.572 17.9061 105.296 18.1312 104.934 18.1312Z" fill="white"/>
<path id="Vector_36" d="M108.633 16.2424H107.09L106.546 20.2066H107.239L107.442 18.7151H108.006L108.851 20.2066H109.661L108.783 18.6877C109.344 18.5814 109.758 18.1658 109.833 17.6132C109.885 17.2457 109.796 16.9038 109.582 16.6508C109.36 16.3872 109.023 16.2419 108.633 16.2419H108.633V16.2424ZM109.132 17.5406C109.09 17.858 108.832 18.0715 108.49 18.0715H107.529L107.691 16.9187H108.612C108.78 16.9187 108.925 16.9807 109.021 17.0933C109.117 17.2072 109.157 17.366 109.132 17.541V17.5406Z" fill="white"/>
<path id="Vector_37" d="M112.321 16.1765C111.258 16.1765 110.347 16.9807 110.203 18.0465C110.119 18.6521 110.265 19.2119 110.614 19.6231C110.968 20.0411 111.503 20.2715 112.119 20.2715C113.177 20.2715 114.087 19.4678 114.238 18.4024C114.323 17.8007 114.179 17.2423 113.832 16.8306C113.475 16.4088 112.939 16.1765 112.321 16.1765H112.321ZM113.537 18.3346C113.438 19.0474 112.84 19.5847 112.146 19.5847C111.744 19.5847 111.397 19.4356 111.169 19.1648C110.94 18.894 110.845 18.5208 110.903 18.1139C111.003 17.4015 111.601 16.8638 112.295 16.8638C112.696 16.8638 113.043 17.0129 113.272 17.2837C113.501 17.5545 113.595 17.9277 113.538 18.3346H113.537Z" fill="white"/>
<path id="Vector_38" d="M114.518 16.9187H115.622L115.171 20.2066H115.865L116.316 16.9187H117.42L117.512 16.2424H114.61L114.518 16.9187Z" fill="white"/>
<path id="Vector_39" d="M117.552 20.2066H120.131L120.223 19.5303H118.338L118.469 18.5516H120.157L120.256 17.8753H118.566L118.697 16.9187H120.556L120.648 16.2424H118.096L117.552 20.2066Z" fill="white"/>
<path id="Vector_40" d="M122.956 16.8638C123.574 16.8638 124.044 17.1846 124.153 17.681L124.17 17.7623H124.881L124.868 17.6459C124.763 16.7671 124.006 16.1765 122.982 16.1765C121.959 16.1765 121.008 16.9807 120.864 18.0465C120.781 18.6521 120.927 19.2119 121.275 19.6231C121.63 20.0411 122.164 20.2715 122.781 20.2715C123.686 20.2715 124.442 19.7025 124.709 18.8214L124.75 18.6862H124.027L124.002 18.7535C123.813 19.2663 123.355 19.5847 122.807 19.5847C122.405 19.5847 122.058 19.4356 121.83 19.1648C121.601 18.894 121.507 18.5208 121.564 18.1139C121.663 17.4015 122.261 16.8643 122.956 16.8643V16.8638Z" fill="white"/>
<path id="Vector_41" d="M128.014 16.2424H125.111L125.02 16.9187H126.124L125.673 20.2066H126.366L126.817 16.9187H127.922L128.014 16.2424Z" fill="white"/>
<path id="Vector_42" d="M128.316 19.4822C128.236 19.3899 128.118 19.3394 127.985 19.3394C127.76 19.3394 127.563 19.5106 127.529 19.7376V19.739C127.51 19.8742 127.543 20.0002 127.622 20.0945C127.704 20.1911 127.825 20.2445 127.964 20.2445C128.189 20.2445 128.388 20.0685 128.415 19.8434C128.432 19.7044 128.397 19.576 128.316 19.4827H128.316V19.4822Z" fill="white"/>
</g>
</svg>
